<svg width="26" height="26" viewBox="0 0 26 26" fill="none" xmlns="http://www.w3.org/2000/svg">
<path d="M4.68008 2.08008C3.25033 2.08008 2.08008 3.25033 2.08008 4.68008V21.3201C2.08008 22.7498 3.25033 23.9201 4.68008 23.9201H21.3201C22.7498 23.9201 23.9201 22.7498 23.9201 21.3201V4.68008C23.9201 3.25033 22.7498 2.08008 21.3201 2.08008H4.68008ZM4.68008 3.12008H21.3201C22.1877 3.12008 22.8801 3.81247 22.8801 4.68008V21.3201C22.8801 22.1877 22.1877 22.8801 21.3201 22.8801H4.68008C3.81247 22.8801 3.12008 22.1877 3.12008 21.3201V4.68008C3.12008 3.81247 3.81247 3.12008 4.68008 3.12008ZM13.0001 4.16008C10.4213 4.16008 8.32008 6.26127 8.32008 8.84008C8.32008 11.4189 10.4213 13.5201 13.0001 13.5201C15.5789 13.5201 17.6801 11.4189 17.6801 8.84008C17.6801 6.26127 15.5789 4.16008 13.0001 4.16008ZM13.0001 5.20008C15.017 5.20008 16.6401 6.82312 16.6401 8.84008C16.6401 10.857 15.017 12.4801 13.0001 12.4801C10.9831 12.4801 9.36008 10.857 9.36008 8.84008C9.36008 6.82312 10.9831 5.20008 13.0001 5.20008ZM13.0001 6.24008C11.5703 6.24008 10.4001 7.4103 10.4001 8.84008C10.4001 10.2699 11.5703 11.4401 13.0001 11.4401C14.4299 11.4401 15.6001 10.2699 15.6001 8.84008C15.6001 7.4103 14.4299 6.24008 13.0001 6.24008ZM13.0001 7.28008C13.8678 7.28008 14.5601 7.97235 14.5601 8.84008C14.5601 9.7078 13.8678 10.4001 13.0001 10.4001C12.1324 10.4001 11.4401 9.7078 11.4401 8.84008C11.4401 7.97235 12.1324 7.28008 13.0001 7.28008ZM17.1347 13.258C16.8339 13.262 16.5316 13.3518 16.2684 13.5343H16.2673L16.2663 13.5353C15.3052 14.2069 14.1796 14.5601 13.0001 14.5601C11.8235 14.5601 10.7 14.2085 9.73891 13.5404C9.03644 13.0511 8.05534 13.2277 7.5675 13.9304C7.07893 14.6327 7.25537 15.6133 7.9575 16.1018C8.55625 16.518 9.2344 16.7575 9.90445 17.0098L7.73711 19.1771C7.13231 19.7819 7.13231 20.7782 7.73711 21.383C8.03948 21.6854 8.44181 21.8401 8.84008 21.8401C9.23835 21.8401 9.64067 21.6854 9.94305 21.383L13.0001 18.326L16.0571 21.383C16.3595 21.6854 16.7618 21.8401 17.1601 21.8401C17.5583 21.8401 17.9607 21.6854 18.263 21.383C18.8678 20.7782 18.8678 19.7819 18.263 19.1771L16.1516 17.0646C16.8147 16.8123 17.4601 16.5081 18.0528 16.0947C18.7538 15.6052 18.9293 14.6241 18.4398 13.9223C18.1951 13.5714 17.8272 13.3526 17.4333 13.2824C17.3348 13.2649 17.2349 13.2567 17.1347 13.258ZM17.2515 14.3001C17.3818 14.3232 17.5031 14.3977 17.5866 14.5174C17.7543 14.7578 17.6979 15.0738 17.4577 15.2416C16.7254 15.7523 15.9201 16.1238 15.0709 16.3567L14.2087 16.5934L14.8404 17.2261L17.5277 19.9124C17.7352 20.1199 17.7352 20.4403 17.5277 20.6477C17.4235 20.752 17.2943 20.8001 17.1601 20.8001C17.0259 20.8001 16.8967 20.752 16.7924 20.6477L13.0001 16.8554L9.20773 20.6477C9.10347 20.752 8.97429 20.8001 8.84008 20.8001C8.70587 20.8001 8.57669 20.752 8.47242 20.6477C8.26498 20.4403 8.26498 20.1199 8.47242 19.9124L11.7915 16.5934L10.9292 16.3567C10.0831 16.1242 9.28137 15.7549 8.55164 15.2477C8.31049 15.0799 8.25397 14.7655 8.42164 14.5245V14.5235C8.58796 14.2839 8.90499 14.2265 9.14477 14.3935V14.3945C10.2783 15.1825 11.6152 15.6001 13.0001 15.6001C14.3878 15.6001 15.7273 15.1806 16.8615 14.3884C16.9822 14.3047 17.1212 14.277 17.2515 14.3001Z" fill="#213A8B"/>
</svg>
