<svg width="22" height="22" viewBox="0 0 22 22" fill="none" xmlns="http://www.w3.org/2000/svg">
<path d="M11.2025 7.65912L11.2026 7.65911C12.7277 7.02461 13.661 6.64712 14.2661 6.42751C14.8623 6.21112 15.1928 6.12701 15.4893 6.12207M11.2025 7.65912L15.4976 6.622M11.2025 7.65912C10.1282 8.10613 7.98833 9.02797 4.78661 10.4229C4.51195 10.5323 4.27114 10.6525 4.08637 10.7898C3.91241 10.919 3.70386 11.126 3.66486 11.4283L3.66485 11.4283M11.2025 7.65912L3.66485 11.4283M15.4893 6.12207L15.4976 6.622M15.4893 6.12207C15.4889 6.12208 15.4886 6.12208 15.4882 6.12209L15.4976 6.622M15.4893 6.12207C15.7451 6.11748 15.996 6.19285 16.2069 6.3377L16.231 6.35421L16.2529 6.37341C16.4314 6.52941 16.5463 6.7454 16.576 6.98031M15.4976 6.622C15.6496 6.61914 15.7986 6.66385 15.9239 6.74988C16.0114 6.82638 16.0673 6.93276 16.0806 7.04825M16.576 6.98031C16.5756 6.97737 16.5752 6.97444 16.5747 6.97151L16.0806 7.04825M16.576 6.98031C16.603 7.1579 16.6101 7.33795 16.5972 7.51714L16.5964 7.52861L16.5963 7.52859C16.4288 9.29349 15.7083 13.5342 15.3443 15.4807M16.576 6.98031C16.5765 6.98384 16.5769 6.98737 16.5773 6.99091L16.0806 7.04825M16.0806 7.04825C16.1029 7.19149 16.1089 7.33679 16.0985 7.48137C15.9335 9.22075 15.2171 13.4406 14.8527 15.389M15.3443 15.4807L9.90275 14.0401C10.3524 14.3371 10.7126 14.5805 11.0715 14.8252C11.462 15.092 11.8525 15.3574 12.3585 15.6901C12.4868 15.7745 12.6106 15.8602 12.7298 15.9472C13.1849 16.2717 13.596 16.5632 14.1006 16.5165C14.3949 16.489 14.6988 16.214 14.8527 15.389M15.3443 15.4807L14.8527 15.389M15.3443 15.4807C15.3442 15.4808 15.3442 15.4809 15.3442 15.4809L14.8527 15.389M3.66485 11.4283L3.66452 11.431M3.66485 11.4283L3.66452 11.431M3.66452 11.431C3.6395 11.6336 3.68648 11.8268 3.79835 11.9907C3.90052 12.1404 4.03884 12.2397 4.15845 12.3077C4.37627 12.4316 4.66716 12.5233 4.92349 12.6041C4.9354 12.6079 4.94724 12.6116 4.95899 12.6153L4.95959 12.6155M3.66452 11.431L4.95959 12.6155M4.95959 12.6155L5.1977 12.6903M4.95959 12.6155L5.1977 12.6903M5.1977 12.6903C5.48486 12.7839 5.8248 12.8862 6.14665 12.9668C6.45734 13.0446 6.79104 13.1127 7.04758 13.1182L5.1977 12.6903ZM12.5141 9.33768C12.5773 9.29731 12.6328 9.26235 12.6804 9.2328C12.676 9.25624 12.6754 9.27175 12.6752 9.27721C12.6749 9.28826 12.6753 9.30112 12.6776 9.31639C12.6806 9.33646 12.6962 9.424 12.7831 9.50336L12.9417 9.32965L12.7831 9.50337C12.8482 9.56278 12.9168 9.58408 12.9623 9.59149C12.9234 9.63323 12.88 9.67883 12.8325 9.72771C12.8271 9.73113 12.8217 9.73459 12.8161 9.73812C12.6146 9.86619 12.3216 10.0573 11.9357 10.3123C11.5468 10.5693 11.0657 10.89 10.4921 11.2744C10.8991 10.8954 11.416 10.4128 11.859 9.98647C12.1181 9.73701 12.3478 9.5108 12.5141 9.33768ZM8.5346 12.5914C8.53534 12.5909 8.53608 12.5904 8.53682 12.5898L8.25275 12.1784L8.53244 12.5928C8.53316 12.5923 8.53388 12.5919 8.5346 12.5914ZM21.5 11C21.5 13.7848 20.3938 16.4555 18.4246 18.4246C16.4555 20.3938 13.7848 21.5 11 21.5C8.21523 21.5 5.54451 20.3938 3.57538 18.4246C1.60625 16.4555 0.5 13.7848 0.5 11C0.5 8.21523 1.60625 5.54451 3.57538 3.57538C5.54451 1.60625 8.21523 0.5 11 0.5C13.7848 0.5 16.4555 1.60625 18.4246 3.57538C20.3938 5.54451 21.5 8.21523 21.5 11Z" stroke="#213A8B"/>
</svg>
