<svg width="24" height="24" viewBox="0 0 24 24" fill="none" xmlns="http://www.w3.org/2000/svg">
<path d="M4.38095 1C3.07166 1 2 2.17883 2 3.61905V20.381C2 21.8212 3.07166 23 4.38095 23H19.619C20.9283 23 22 21.8212 22 20.381V3.61905C22 2.17883 20.9283 1 19.619 1H4.38095ZM4.38095 2.04762H19.619C20.4136 2.04762 21.0476 2.74508 21.0476 3.61905V20.381C21.0476 21.2549 20.4136 21.9524 19.619 21.9524H4.38095C3.58644 21.9524 2.95238 21.2549 2.95238 20.381V3.61905C2.95238 2.74508 3.58644 2.04762 4.38095 2.04762ZM11.2364 7.28162C10.7329 7.28035 10.2838 7.31131 9.88225 7.52818L9.88132 7.5292C9.68555 7.63531 9.54756 7.77008 9.43769 7.93025C9.38275 8.01033 9.32647 8.08222 9.29632 8.26479C9.28124 8.35607 9.27277 8.504 9.35956 8.66378C9.44635 8.82357 9.62086 8.91443 9.73251 8.9308C9.81008 8.94216 9.98515 9.02413 10.0013 9.04846L10.0022 9.0505C10.0022 9.0505 10.0701 9.24536 10.0897 9.41881C10.1092 9.59225 10.1083 9.73289 10.1083 9.73289C10.1081 9.74688 10.1084 9.76087 10.1092 9.77483C10.1092 9.77483 10.1368 10.2293 10.1185 10.6987C10.1112 10.8857 10.0892 11.0522 10.0664 11.201C9.89683 10.995 9.64696 10.6221 9.28609 9.93443C8.88576 9.17114 8.56715 8.48679 8.56715 8.48679C8.55042 8.42717 8.49124 8.24168 8.26023 8.05506C8.00769 7.85032 7.76358 7.81975 7.76358 7.81975C7.73296 7.813 7.70181 7.80957 7.67057 7.80952L5.79371 7.81055C5.79371 7.81055 5.68118 7.80339 5.54632 7.82385C5.41145 7.84431 5.20838 7.86096 5.01246 8.11644L5.01153 8.11747C4.83644 8.3476 4.84703 8.60195 4.8683 8.74563C4.88957 8.88931 4.93713 8.99833 4.93713 8.99833C4.93805 9.00038 4.93898 9.00243 4.93992 9.00447C4.93992 9.00447 6.4751 12.555 8.21001 14.6456C9.46986 16.1637 10.763 16.1895 11.8298 16.1895H12.6259C12.8292 16.1895 13.013 16.1807 13.2165 16.0503C13.42 15.9199 13.5569 15.6025 13.5569 15.3823C13.5569 15.1515 13.5882 14.9701 13.6267 14.8769C13.6537 14.8113 13.6751 14.7877 13.7085 14.7684C13.7156 14.7733 13.711 14.7705 13.7308 14.7858C13.8101 14.8471 13.941 14.9869 14.0833 15.1613C14.368 15.51 14.6911 15.9883 15.125 16.3163C15.4359 16.5515 15.7295 16.6559 15.9528 16.6938C16.0926 16.7176 16.2013 16.713 16.2783 16.7061L18.0565 16.7143C18.0671 16.7143 18.0776 16.714 18.0882 16.7133C18.0882 16.7133 18.3946 16.7172 18.7132 16.5076C18.8725 16.4028 19.0603 16.2042 19.1215 15.9142C19.1826 15.6243 19.1058 15.324 18.9559 15.0498V15.0487C18.9819 15.0962 18.9324 14.9987 18.8815 14.9076C18.8307 14.8164 18.7568 14.6936 18.6509 14.5413C18.4389 14.2366 18.0994 13.8102 17.5506 13.2481H17.5497C17.2709 12.9629 17.0827 12.7609 17.0056 12.6486C16.9284 12.5363 16.9537 12.5953 16.9591 12.5668C16.9698 12.5097 17.3043 11.9789 17.9849 10.979C18.3987 10.3704 18.6891 9.91344 18.8806 9.53339C19.0721 9.15334 19.2102 8.82419 19.114 8.42132L19.1131 8.41927C19.0704 8.24242 18.9538 8.07941 18.8341 7.99061C18.7143 7.9018 18.6008 7.86707 18.4993 7.84533C18.2961 7.80186 18.1189 7.80952 17.9542 7.80952C17.6091 7.80952 16.0779 7.82282 15.9518 7.82282C15.8029 7.82282 15.5567 7.89733 15.4477 7.96912C15.1739 8.1504 15.0952 8.38858 15.0952 8.38858C15.0903 8.39864 15.0856 8.40888 15.0813 8.41927C15.0813 8.41927 14.7654 9.18976 14.3586 9.9508C13.9465 10.7228 13.6421 11.0909 13.4583 11.2613C13.4533 11.231 13.4541 11.2556 13.4509 11.2133C13.4344 10.9977 13.4528 10.6998 13.4528 10.4091C13.4528 9.62629 13.5131 9.0784 13.4807 8.59422C13.4644 8.35212 13.4237 8.10248 13.2788 7.87295C13.134 7.64343 12.893 7.49431 12.6548 7.43099C12.5118 7.39307 12.3489 7.29443 11.7591 7.28776H11.7582C11.5778 7.28578 11.4043 7.28205 11.2364 7.28162ZM11.7489 8.33538C12.2708 8.34128 12.1408 8.37288 12.4306 8.44996C12.5205 8.47385 12.4987 8.47372 12.4967 8.47042C12.4946 8.46712 12.521 8.52113 12.5311 8.67197C12.5513 8.97363 12.5004 9.5734 12.5004 10.4091C12.5004 10.637 12.4754 10.9622 12.5013 11.3012C12.5272 11.6403 12.6036 12.0753 12.9719 12.3376C13.1465 12.4621 13.3492 12.4699 13.5225 12.4225C13.6958 12.3751 13.8531 12.2764 14.0182 12.131C14.3485 11.8401 14.7169 11.3491 15.1799 10.4818C15.6126 9.67212 15.9274 8.90113 15.9379 8.87556C15.9399 8.87375 15.942 8.87252 15.9444 8.87044C15.9503 8.87051 15.9442 8.87044 15.9518 8.87044C16.1296 8.87044 17.6327 8.85714 17.9542 8.85714C18.0293 8.85714 18.0566 8.86212 18.1161 8.8643C18.0999 8.92363 18.1179 8.88579 18.0472 9.02595C17.8991 9.31991 17.6261 9.75676 17.2223 10.3508C16.5587 11.3257 16.1473 11.7077 16.0262 12.355C15.9657 12.6787 16.0792 13.0374 16.2457 13.2799C16.4123 13.5223 16.6225 13.73 16.9014 14.0154C17.4179 14.5444 17.7209 14.9288 17.8947 15.1787C17.9816 15.3036 18.0364 15.3939 18.0705 15.4549C18.1046 15.5159 18.0961 15.5095 18.1403 15.5899C18.1693 15.6435 18.1586 15.6108 18.1635 15.6268C18.1064 15.6445 18.0372 15.6658 18.0333 15.6667L16.282 15.6585C16.2505 15.6585 16.219 15.6619 16.1881 15.6687C16.1881 15.6687 16.1924 15.6744 16.0988 15.6585C16.0051 15.6426 15.8561 15.598 15.6644 15.4528C15.4331 15.278 15.1093 14.8502 14.792 14.4615C14.6334 14.2672 14.4752 14.0805 14.2786 13.9285C14.0821 13.7764 13.788 13.6335 13.4704 13.7433C13.1408 13.8572 12.8842 14.1401 12.7589 14.4441C12.6657 14.6704 12.6581 14.9067 12.6436 15.1418C12.6278 15.1431 12.646 15.1418 12.6259 15.1418H11.8298C10.7481 15.1418 9.97995 15.2241 8.91313 13.9387C7.47814 12.2094 6.16339 9.33224 5.94903 8.85817L7.60082 8.85714C7.62985 8.8694 7.69199 8.89506 7.69568 8.89807L7.69754 8.90011C7.63717 8.85157 7.70034 8.91955 7.70034 8.91955C7.70616 8.93523 7.71268 8.9506 7.71987 8.96559C7.71987 8.96559 8.04717 9.66896 8.46112 10.4582C8.86718 11.232 9.16307 11.7154 9.44885 12.0348C9.59173 12.1945 9.73597 12.3226 9.92876 12.3949C10.1215 12.4672 10.3705 12.4407 10.5379 12.3397C10.8801 12.1337 10.926 11.8298 10.9816 11.5642C11.0372 11.2982 11.0594 11.0148 11.0699 10.7437C11.0904 10.2175 11.0614 9.76203 11.0597 9.73391C11.0598 9.72405 11.062 9.53413 11.0346 9.29092C11.0066 9.04188 10.9753 8.73738 10.7705 8.43052L10.7695 8.4295C10.7681 8.42735 10.7663 8.42751 10.7649 8.42541C11.0357 8.38268 11.2675 8.33009 11.7489 8.33538ZM15.95 8.84896L15.9435 8.86533C15.9424 8.86596 15.9428 8.86457 15.9416 8.86533C15.9436 8.86111 15.95 8.84896 15.95 8.84896Z" fill="#213A8B"/>
</svg>
