<svg width="37" height="37" viewBox="0 0 37 37" fill="none" xmlns="http://www.w3.org/2000/svg">
<path d="M3.46875 3.46875C3.46875 3.16209 3.59057 2.868 3.80741 2.65116C4.02425 2.43432 4.31834 2.3125 4.625 2.3125H32.375C32.6817 2.3125 32.9758 2.43432 33.1926 2.65116C33.4094 2.868 33.5312 3.16209 33.5312 3.46875V8.09375C33.5312 8.3789 33.4258 8.65397 33.2352 8.86613L23.125 20.1003V31.2188C23.1248 31.4613 23.0483 31.6977 22.9064 31.8944C22.7645 32.0911 22.5643 32.2382 22.3341 32.3149L15.3966 34.6274C15.2229 34.6852 15.0379 34.701 14.8569 34.6734C14.6759 34.6458 14.504 34.5756 14.3554 34.4685C14.2068 34.3615 14.0858 34.2207 14.0023 34.0578C13.9188 33.8948 13.8751 33.7144 13.875 33.5313V20.1003L3.76475 8.86613C3.57422 8.65397 3.4688 8.3789 3.46875 8.09375V3.46875ZM5.78125 4.625V7.64975L15.8915 18.8839C16.082 19.096 16.1874 19.3711 16.1875 19.6563V31.9264L20.8125 30.3863V19.6563C20.8126 19.3711 20.918 19.096 21.1085 18.8839L31.2188 7.64975V4.625H5.78125Z" fill="#213A8B"/>
</svg>
