<svg width="47" height="47" viewBox="0 0 47 47" fill="none" xmlns="http://www.w3.org/2000/svg">
<rect width="47" height="47" rx="23.5" fill="#E1E8F2"/>
<path d="M23.4314 11.8015C17.759 11.8015 12.8164 15.0483 11.3893 19.6613H10.3413C10.0635 19.6616 9.78915 19.7227 9.53744 19.8402C9.28572 19.9577 9.06274 20.1288 8.88412 20.3415C8.7055 20.5543 8.57556 20.8035 8.5034 21.0718C8.43124 21.34 8.4186 21.6208 8.46638 21.8944L8.95036 24.6763C9.06569 25.3395 9.41142 25.9408 9.92661 26.374C10.4418 26.8073 11.0934 27.0448 11.7665 27.0448H12.2677C12.8393 28.0222 13.5786 28.9082 14.4494 29.678L13.0603 34.3977C13.0185 34.5398 13.0105 34.6897 13.0368 34.8355C13.0631 34.9812 13.123 35.1189 13.2118 35.2374C13.3005 35.356 13.4157 35.4522 13.5482 35.5185C13.6807 35.5847 13.8268 35.6192 13.9749 35.6191H17.7857C17.9823 35.6191 18.1741 35.5583 18.3347 35.4451C18.4954 35.3318 18.6171 35.1716 18.6832 34.9865L19.6016 32.4123C20.8115 32.7419 22.0977 32.921 23.4333 32.921C24.7805 32.921 26.078 32.74 27.2975 32.4028L28.3321 35.017C28.4024 35.1946 28.5245 35.347 28.6825 35.4544C28.8405 35.5617 29.0271 35.6191 29.2182 35.6191H33.029C33.1776 35.6189 33.3242 35.584 33.4569 35.5171C33.5897 35.4501 33.7049 35.3531 33.7934 35.2336C33.8819 35.1142 33.9413 34.9757 33.9667 34.8292C33.9921 34.6828 33.9829 34.5324 33.9398 34.3901L32.4897 29.6152C34.5704 27.7459 35.8852 25.2003 35.8852 22.3613C35.8852 22.0844 35.8725 21.8106 35.8471 21.54C36.3444 21.3304 36.815 21.0332 37.1904 20.694C37.7906 21.2771 38.7433 21.2771 38.7433 19.8995C38.7433 20.3244 37.7906 20.3244 37.8649 19.8499C37.9438 19.6965 38.0015 19.533 38.0364 19.3641C38.0812 19.1434 38.0694 18.9149 38.0021 18.7C37.9348 18.4851 37.8142 18.2908 37.6515 18.1351C37.4799 17.9582 37.2541 17.8438 37.01 17.81C36.766 17.7761 36.5176 17.8248 36.3044 17.9484C36.1088 18.0573 35.942 18.2113 35.8178 18.3975C35.6935 18.5837 35.6154 18.7968 35.5898 19.0192C35.5441 19.4822 35.7461 19.9338 36.1996 20.2653C36.0426 20.3748 35.8776 20.4722 35.7061 20.5569C34.6886 15.4809 29.4487 11.8015 23.4314 11.8015ZM37.0989 19.1869C37.0633 19.3311 36.9998 19.467 36.9122 19.587L36.8283 19.5394C36.5502 19.3679 36.5292 19.2059 36.5387 19.1145C36.5486 19.0463 36.5739 18.9812 36.6125 18.9241C36.6511 18.867 36.7021 18.8194 36.7617 18.7848C36.855 18.7334 36.9141 18.7448 36.977 18.8077C37.0303 18.8535 37.0699 18.9132 37.0914 18.9801C37.1129 19.047 37.1155 19.1186 37.0989 19.1869ZM19.9522 17.9484C19.8301 17.9898 19.7009 18.006 19.5724 17.996C19.4439 17.9861 19.3188 17.9501 19.2045 17.8904C19.0903 17.8307 18.9894 17.7484 18.9079 17.6485C18.8264 17.5486 18.766 17.4333 18.7304 17.3094C18.6948 17.1855 18.6847 17.0557 18.7007 16.9278C18.7167 16.7999 18.7585 16.6766 18.8236 16.5653C18.8886 16.4541 18.9756 16.3572 19.0792 16.2805C19.1828 16.2038 19.3009 16.1489 19.4263 16.1192C20.7286 15.7467 22.0768 15.5587 23.4314 15.5609C24.8853 15.5609 26.2838 15.7705 27.5852 16.1611C27.7051 16.197 27.8167 16.2562 27.9137 16.3352C28.0107 16.4142 28.0911 16.5116 28.1505 16.6217C28.2099 16.7319 28.247 16.8526 28.2596 16.9771C28.2723 17.1016 28.2604 17.2273 28.2245 17.3472C28.1886 17.4671 28.1294 17.5787 28.0504 17.6757C27.9713 17.7726 27.874 17.8531 27.7638 17.9125C27.6537 17.9718 27.5329 18.0089 27.4085 18.0216C27.284 18.0343 27.1582 18.0224 27.0384 17.9865C25.8677 17.6389 24.6526 17.4636 23.4314 17.4663C22.212 17.4663 21.0402 17.6378 19.9522 17.9503V17.9484ZM17.7838 20.8007C17.7838 21.1798 17.6333 21.5432 17.3653 21.8112C17.0973 22.0792 16.7338 22.2298 16.3548 22.2298C15.9758 22.2298 15.6123 22.0792 15.3443 21.8112C15.0763 21.5432 14.9257 21.1798 14.9257 20.8007C14.9257 20.4217 15.0763 20.0582 15.3443 19.7902C15.6123 19.5222 15.9758 19.3717 16.3548 19.3717C16.7338 19.3717 17.0973 19.5222 17.3653 19.7902C17.6333 20.0582 17.7838 20.4217 17.7838 20.8007Z" fill="#213A8B"/>
</svg>
