<svg width="808" height="490" viewBox="0 0 808 490" fill="none" xmlns="http://www.w3.org/2000/svg">
<path d="M0 16C0 7.16344 7.16344 0 16 0H125C133.837 0 141 7.16344 141 16V75H16C7.16345 75 0 67.8366 0 59V16Z" fill="#213A8B"/>
<path d="M1.5 16C1.5 7.99187 7.99187 1.5 16 1.5H125C133.008 1.5 139.5 7.99187 139.5 16V73.5H16C7.99187 73.5 1.5 67.0081 1.5 59V16Z" stroke="#213A8B" stroke-opacity="0.6" stroke-width="3"/>
<path d="M25.8281 46.0781H24.2344V40.5586H25.1953C26.3203 40.5586 27.0273 39.3047 27.3164 36.7969L28.6523 25.1953H39.0938V40.5586H41.5195V46.0781H39.9375V42H25.8281V46.0781ZM37.5117 26.6367H30.0703L28.8984 36.7969C28.7969 37.7031 28.6367 38.4805 28.418 39.1289C28.207 39.7695 28.0078 40.168 27.8203 40.3242L27.5742 40.5117V40.5586H37.5117V26.6367ZM55.3594 42H53.8945V31.8281H53.8477L46.4766 42H44.3906V30.2344H45.8555V40.418H45.9023L53.2734 30.2344H55.3594V42ZM65.8008 30C67.5664 30 69.0391 30.5703 70.2188 31.7109C71.3828 32.8594 71.9648 34.3281 71.9648 36.1172C71.9648 37.9141 71.3828 39.3828 70.2188 40.5234C69.0391 41.6641 67.5664 42.2344 65.8008 42.2344C63.7539 42.2656 62.1758 41.5391 61.0664 40.0547L61.0195 39.9844H60.9258V46.8047H59.4375V30.2344H60.9258V32.2617H61.0195L61.0664 32.1797C62.207 30.7031 63.7852 29.9766 65.8008 30ZM65.6836 40.8047C67.0977 40.8047 68.2422 40.3555 69.1172 39.457C69.9922 38.5586 70.4297 37.4453 70.4297 36.1172C70.4297 34.7891 69.9922 33.6758 69.1172 32.7773C68.2422 31.8867 67.0977 31.4414 65.6836 31.4414C64.293 31.4414 63.1523 31.875 62.2617 32.7422C61.3711 33.6172 60.9258 34.7422 60.9258 36.1172C60.9258 37.4922 61.3711 38.6172 62.2617 39.4922C63.1367 40.3672 64.2773 40.8047 65.6836 40.8047ZM82.6055 30.2344H84.3164L79.8516 35.8125L84.8203 42H83.1094L78.9844 36.8672L74.8594 42H73.1484L78.1172 35.8125L73.6523 30.2344H75.3633L78.9844 34.7578L82.6055 30.2344ZM86.1445 38.7891C86.1445 37.6484 86.6602 36.7773 87.6914 36.1758C88.7148 35.582 90.0078 35.2852 91.5703 35.2852C92.3906 35.2852 93.1758 35.3867 93.9258 35.5898C94.668 35.8008 95.1953 36 95.5078 36.1875L96.0117 36.5039V34.3477C96.0117 33.3867 95.6484 32.6523 94.9219 32.1445C94.1875 31.6445 93.2773 31.3945 92.1914 31.3945C91.1289 31.3945 90.207 31.6133 89.4258 32.0508C88.6445 32.4805 88.2539 33.0195 88.2539 33.668H86.7656C86.8047 32.6992 87.2852 31.8477 88.207 31.1133C89.1367 30.3711 90.4492 30 92.1445 30C93.6758 30 94.9492 30.3672 95.9648 31.1016C96.9883 31.8438 97.5 32.9258 97.5 34.3477V39.3164C97.5 39.8789 97.5859 40.2773 97.7578 40.5117C97.9375 40.7383 98.2344 40.8516 98.6484 40.8516C98.9141 40.8516 99.1289 40.8203 99.293 40.7578L99.3633 40.6992V42C99.1445 42.1094 98.8242 42.1641 98.4023 42.1641C97.6602 42.1641 97.1289 41.9961 96.8086 41.6602C96.4805 41.3398 96.2852 41.0859 96.2227 40.8984L96.1992 40.7578H96.1289C96.0742 40.8516 95.8398 41.0195 95.4258 41.2617C95.1367 41.4414 94.8398 41.5938 94.5352 41.7188C93.7773 42.0625 92.8203 42.2344 91.6641 42.2344C90.0469 42.2344 88.7227 41.9531 87.6914 41.3906C86.6602 40.8281 86.1445 39.9609 86.1445 38.7891ZM87.6797 38.7891C87.6797 40.1641 89.0703 40.8516 91.8516 40.8516C92.6719 40.8516 93.4336 40.7305 94.1367 40.4883C94.832 40.2461 95.293 40.0469 95.5195 39.8906C95.7305 39.7344 95.8945 39.6055 96.0117 39.5039V37.8516C95.957 37.7812 95.8047 37.668 95.5547 37.5117C95.2734 37.3477 94.7969 37.168 94.125 36.9727C93.4219 36.7695 92.6641 36.668 91.8516 36.668C90.2109 36.668 89.0273 36.9531 88.3008 37.5234C87.8867 37.8516 87.6797 38.2734 87.6797 38.7891ZM113.449 31.8984H113.402L109.418 38.8359H107.402L103.418 31.8984H103.371V42H101.883V30.2344H104.191L108.387 37.6758H108.434L112.641 30.2344H114.938V42H113.449V31.8984Z" fill="#FDFDFD"/>
<path d="M169.656 37.7969V42.9219H171.812C171.839 41.7344 172.216 40.5938 172.945 39.5C173.31 38.9583 173.826 38.5104 174.492 38.1562C175.154 37.8125 175.919 37.6406 176.789 37.6406C178.404 37.6406 179.643 38.1901 180.508 39.2891C181.378 40.3932 181.812 41.763 181.812 43.3984C181.812 45.0286 181.404 46.375 180.586 47.4375C180.174 47.9792 179.641 48.401 178.984 48.7031C178.333 49.0052 177.602 49.1562 176.789 49.1562C176.107 49.1562 175.479 49.0469 174.906 48.8281C174.333 48.6094 173.857 48.3151 173.477 47.9453C173.107 47.5964 172.794 47.1823 172.539 46.7031C172.07 45.8438 171.823 44.9036 171.797 43.8828H169.656V49H168.602V37.7969H169.656ZM172.875 43.3984C172.875 44.7474 173.203 45.8802 173.859 46.7969C174.516 47.7135 175.492 48.1719 176.789 48.1719C177.669 48.1719 178.417 47.9401 179.031 47.4766C179.646 47.013 180.081 46.4349 180.336 45.7422C180.596 45.0391 180.727 44.2578 180.727 43.3984C180.727 42.1016 180.422 41 179.812 40.0938C179.505 39.6354 179.089 39.2786 178.562 39.0234C178.042 38.763 177.451 38.6328 176.789 38.6328C175.487 38.6328 174.51 39.0911 173.859 40.0078C173.203 40.9193 172.875 42.0495 172.875 43.3984ZM183.898 46.8594C183.898 46.099 184.242 45.5182 184.93 45.1172C185.612 44.7214 186.474 44.5234 187.516 44.5234C188.062 44.5234 188.586 44.5911 189.086 44.7266C189.581 44.8672 189.932 45 190.141 45.125L190.477 45.3359V43.8984C190.477 43.2578 190.234 42.7682 189.75 42.4297C189.26 42.0964 188.654 41.9297 187.93 41.9297C187.221 41.9297 186.607 42.0755 186.086 42.3672C185.565 42.6536 185.305 43.013 185.305 43.4453H184.312C184.339 42.7995 184.659 42.2318 185.273 41.7422C185.893 41.2474 186.768 41 187.898 41C188.919 41 189.768 41.2448 190.445 41.7344C191.128 42.2292 191.469 42.9505 191.469 43.8984V47.2109C191.469 47.5859 191.526 47.8516 191.641 48.0078C191.76 48.1589 191.958 48.2344 192.234 48.2344C192.411 48.2344 192.555 48.2135 192.664 48.1719L192.711 48.1328V49C192.565 49.0729 192.352 49.1094 192.07 49.1094C191.576 49.1094 191.221 48.9974 191.008 48.7734C190.789 48.5599 190.659 48.3906 190.617 48.2656L190.602 48.1719H190.555C190.518 48.2344 190.362 48.3464 190.086 48.5078C189.893 48.6276 189.695 48.7292 189.492 48.8125C188.987 49.0417 188.349 49.1562 187.578 49.1562C186.5 49.1562 185.617 48.9688 184.93 48.5938C184.242 48.2188 183.898 47.6406 183.898 46.8594ZM184.922 46.8594C184.922 47.776 185.849 48.2344 187.703 48.2344C188.25 48.2344 188.758 48.1536 189.227 47.9922C189.69 47.8307 189.997 47.6979 190.148 47.5938C190.289 47.4896 190.398 47.4036 190.477 47.3359V46.2344C190.44 46.1875 190.339 46.112 190.172 46.0078C189.984 45.8984 189.667 45.7786 189.219 45.6484C188.75 45.513 188.245 45.4453 187.703 45.4453C186.609 45.4453 185.82 45.6354 185.336 46.0156C185.06 46.2344 184.922 46.5156 184.922 46.8594ZM201.719 49H200.727V45.4141H195.383V49H194.391V41.1562H195.383V44.4844H200.727V41.1562H201.719V49ZM209.969 44.5312C210.547 44.9635 210.836 45.599 210.836 46.4375C210.836 47.2812 210.547 47.9193 209.969 48.3516C209.38 48.7839 208.539 49 207.445 49H204.438V41.1562H205.43V43.8828H207.445C208.539 43.8828 209.38 44.099 209.969 44.5312ZM209.258 47.6797C209.628 47.4193 209.812 47.0052 209.812 46.4375C209.812 45.875 209.628 45.4609 209.258 45.1953C208.878 44.9349 208.273 44.8047 207.445 44.8047H205.43V48.0703H207.445C208.273 48.0703 208.878 47.9401 209.258 47.6797Z" fill="#213A8B"/>
<path d="M139 36C139 27.7157 145.716 21 154 21H225C233.284 21 240 27.7157 240 36V59C240 67.2843 233.284 74 225 74H139V36Z" stroke="#213A8B" stroke-opacity="0.2" stroke-width="2"/>
<path d="M576.195 49H574.812L568.656 43.4141V49H567.602V37.7969H568.656V43.2578L574.383 37.7969H575.742L570.047 43.3359L576.195 49ZM576.312 41.1562H577.383L580.602 48.1016H580.648L583.82 41.1562H584.875L581.078 49.3984C580.604 50.4245 580.156 51.1719 579.734 51.6406C579.302 52.1198 578.802 52.3594 578.234 52.3594C577.896 52.3594 577.622 52.3177 577.414 52.2344L577.305 52.2031V51.2734C577.523 51.3776 577.833 51.4297 578.234 51.4297C578.557 51.4297 578.857 51.2734 579.133 50.9609C579.404 50.6328 579.701 50.112 580.023 49.3984L580.086 49.2578L576.312 41.1562ZM590.477 41C591.654 41 592.635 41.3802 593.422 42.1406C594.198 42.9062 594.586 43.8854 594.586 45.0781C594.586 46.276 594.198 47.2552 593.422 48.0156C592.635 48.776 591.654 49.1562 590.477 49.1562C589.112 49.1771 588.06 48.6927 587.32 47.7031L587.289 47.6562H587.227V52.2031H586.234V41.1562H587.227V42.5078H587.289L587.32 42.4531C588.081 41.4688 589.133 40.9844 590.477 41ZM590.398 48.2031C591.341 48.2031 592.104 47.9036 592.688 47.3047C593.271 46.7057 593.562 45.9635 593.562 45.0781C593.562 44.1927 593.271 43.4505 592.688 42.8516C592.104 42.2578 591.341 41.9609 590.398 41.9609C589.471 41.9609 588.711 42.25 588.117 42.8281C587.523 43.4115 587.227 44.1615 587.227 45.0781C587.227 45.9948 587.523 46.7448 588.117 47.3281C588.701 47.9115 589.461 48.2031 590.398 48.2031ZM597.836 48.0234C597.055 47.2682 596.664 46.2865 596.664 45.0781C596.664 43.8698 597.055 42.888 597.836 42.1328C598.607 41.3776 599.604 41 600.828 41C601.359 41 601.865 41.0807 602.344 41.2422C602.823 41.3984 603.221 41.6068 603.539 41.8672C603.841 42.1224 604.102 42.3984 604.32 42.6953C604.721 43.2422 604.922 43.7448 604.922 44.2031H603.883C603.883 44.0885 603.826 43.9193 603.711 43.6953C603.602 43.4714 603.443 43.2292 603.234 42.9688C603.005 42.6875 602.682 42.4505 602.266 42.2578C601.828 42.0599 601.349 41.9609 600.828 41.9609C599.891 41.9609 599.133 42.2578 598.555 42.8516C597.977 43.4505 597.688 44.1927 597.688 45.0781C597.688 45.9635 597.977 46.7057 598.555 47.3047C599.122 47.9036 599.88 48.2031 600.828 48.2031C601.349 48.2031 601.828 48.1042 602.266 47.9062C602.688 47.7135 603.01 47.474 603.234 47.1875C603.667 46.6406 603.883 46.2318 603.883 45.9609H604.922C604.938 46.2578 604.82 46.6302 604.57 47.0781C604.326 47.526 603.982 47.9297 603.539 48.2891C603.221 48.5495 602.823 48.7604 602.344 48.9219C601.865 49.0781 601.359 49.1562 600.828 49.1562C599.609 49.1562 598.612 48.7786 597.836 48.0234ZM614.977 49V41.1562H615.969V49H614.977ZM612.523 44.5312C613.107 44.9583 613.398 45.5938 613.398 46.4375C613.398 47.2865 613.107 47.9245 612.523 48.3516C611.935 48.7839 611.094 49 610 49H607.234V41.1562H608.227V43.8828H610C611.094 43.8828 611.935 44.099 612.523 44.5312ZM611.812 47.6797C612.182 47.4193 612.367 47.0052 612.367 46.4375C612.367 45.875 612.182 45.4609 611.812 45.1953C611.432 44.9349 610.828 44.8047 610 44.8047H608.227V48.0703H610C610.828 48.0703 611.432 47.9401 611.812 47.6797ZM629.688 49H628.695V42.0859H623.523V49H622.531V41.1562H629.688V49ZM633.273 48.0234C632.482 47.263 632.086 46.2812 632.086 45.0781C632.086 43.875 632.482 42.8932 633.273 42.1328C634.06 41.3776 635.062 41 636.281 41C637.5 41 638.503 41.3776 639.289 42.1328C640.076 42.888 640.469 43.8698 640.469 45.0781C640.469 46.2865 640.076 47.2682 639.289 48.0234C638.503 48.7786 637.5 49.1562 636.281 49.1562C635.062 49.1562 634.06 48.7786 633.273 48.0234ZM636.281 48.2031C637.224 48.2031 637.987 47.9036 638.57 47.3047C639.154 46.7057 639.445 45.9635 639.445 45.0781C639.445 44.1927 639.154 43.4505 638.57 42.8516C637.987 42.2578 637.224 41.9609 636.281 41.9609C635.344 41.9609 634.581 42.2578 633.992 42.8516C633.404 43.4557 633.109 44.1979 633.109 45.0781C633.109 45.9583 633.404 46.7005 633.992 47.3047C634.576 47.9036 635.339 48.2031 636.281 48.2031ZM647.586 48.0234C646.794 47.263 646.398 46.2812 646.398 45.0781C646.398 43.875 646.794 42.8932 647.586 42.1328C648.372 41.3776 649.375 41 650.594 41C651.812 41 652.815 41.3776 653.602 42.1328C654.388 42.888 654.781 43.8698 654.781 45.0781C654.781 46.2865 654.388 47.2682 653.602 48.0234C652.815 48.7786 651.812 49.1562 650.594 49.1562C649.375 49.1562 648.372 48.7786 647.586 48.0234ZM650.594 48.2031C651.536 48.2031 652.299 47.9036 652.883 47.3047C653.466 46.7057 653.758 45.9635 653.758 45.0781C653.758 44.1927 653.466 43.4505 652.883 42.8516C652.299 42.2578 651.536 41.9609 650.594 41.9609C649.656 41.9609 648.893 42.2578 648.305 42.8516C647.716 43.4557 647.422 44.1979 647.422 45.0781C647.422 45.9583 647.716 46.7005 648.305 47.3047C648.888 47.9036 649.651 48.2031 650.594 48.2031ZM655.742 41.1562H663.195V42.0859H659.961V49H658.969V42.0859H655.742V41.1562ZM672.125 49H671.133V45.4141H665.789V49H664.797V41.1562H665.789V44.4844H671.133V41.1562H672.125V49ZM675.711 48.0234C674.919 47.263 674.523 46.2812 674.523 45.0781C674.523 43.875 674.919 42.8932 675.711 42.1328C676.497 41.3776 677.5 41 678.719 41C679.938 41 680.94 41.3776 681.727 42.1328C682.513 42.888 682.906 43.8698 682.906 45.0781C682.906 46.2865 682.513 47.2682 681.727 48.0234C680.94 48.7786 679.938 49.1562 678.719 49.1562C677.5 49.1562 676.497 48.7786 675.711 48.0234ZM678.719 48.2031C679.661 48.2031 680.424 47.9036 681.008 47.3047C681.591 46.7057 681.883 45.9635 681.883 45.0781C681.883 44.1927 681.591 43.4505 681.008 42.8516C680.424 42.2578 679.661 41.9609 678.719 41.9609C677.781 41.9609 677.018 42.2578 676.43 42.8516C675.841 43.4557 675.547 44.1979 675.547 45.0781C675.547 45.9583 675.841 46.7005 676.43 47.3047C677.013 47.9036 677.776 48.2031 678.719 48.2031ZM686.305 48.0703H689.953V41.1562H690.945V48.0703H694.594V41.1562H695.586V49H685.312V41.1562H686.305V48.0703ZM706.359 45.0781L706.312 45.6875H699.047C699.047 45.9271 699.177 46.2656 699.438 46.7031C699.589 46.9583 699.771 47.1927 699.984 47.4062C700.214 47.6354 700.526 47.8255 700.922 47.9766C701.318 48.1276 701.745 48.2031 702.203 48.2031C702.536 48.2031 702.857 48.1641 703.164 48.0859C703.471 48.0078 703.724 47.9062 703.922 47.7812C704.307 47.5417 704.56 47.3281 704.68 47.1406L704.781 47.0156H705.977C705.945 47.0938 705.909 47.1693 705.867 47.2422C705.805 47.3568 705.672 47.5312 705.469 47.7656C705.25 48.0156 705.016 48.2318 704.766 48.4141C704.5 48.6068 704.141 48.776 703.688 48.9219C703.229 49.0781 702.734 49.1562 702.203 49.1562C700.964 49.1562 699.951 48.7786 699.164 48.0234C698.372 47.263 697.977 46.2812 697.977 45.0781C697.977 43.875 698.372 42.8932 699.164 42.1328C699.951 41.3776 700.953 41 702.172 41C703.391 41 704.393 41.3776 705.18 42.1328C705.966 42.888 706.359 43.8698 706.359 45.0781ZM699.016 44.7578H705.32C705.32 44.1224 705.044 43.4974 704.492 42.8828C703.94 42.2682 703.167 41.9609 702.172 41.9609C701.177 41.9609 700.404 42.2682 699.852 42.8828C699.294 43.5026 699.016 44.1276 699.016 44.7578ZM716.094 49H715.102V45.4141H709.758V49H708.766V41.1562H709.758V44.4844H715.102V41.1562H716.094V49ZM726.125 49H725.148V42.2188H725.117L720.203 49H718.812V41.1562H719.789V47.9453H719.82L724.734 41.1562H726.125V49ZM728.844 41.1562H729.836V44.6016H731.5C731.5 44.4609 731.544 44.224 731.633 43.8906C731.763 43.3802 731.99 42.8906 732.312 42.4219C732.708 41.8594 733.273 41.4531 734.008 41.2031C734.424 41.0677 734.88 41 735.375 41C736.464 41 737.359 41.3828 738.062 42.1484C738.766 42.9245 739.117 43.901 739.117 45.0781C739.117 46.2656 738.766 47.2422 738.062 48.0078C737.359 48.7734 736.464 49.1562 735.375 49.1562C734.885 49.1562 734.435 49.0911 734.023 48.9609C733.612 48.8307 733.271 48.6562 733 48.4375C732.75 48.2396 732.521 48.0026 732.312 47.7266C731.906 47.1797 731.641 46.5156 731.516 45.7344L731.5 45.5312H729.836V49H728.844V41.1562ZM737.359 47.3203C737.849 46.737 738.094 45.9896 738.094 45.0781C738.094 44.1667 737.849 43.4193 737.359 42.8359C736.87 42.2526 736.18 41.9609 735.289 41.9609C734.404 41.9609 733.716 42.2526 733.227 42.8359C732.737 43.4193 732.492 44.1667 732.492 45.0781C732.492 45.9896 732.737 46.737 733.227 47.3203C733.721 47.9089 734.409 48.2031 735.289 48.2031C736.174 48.2031 736.865 47.9089 737.359 47.3203ZM752.547 49H751.219L746.352 45.0781V49H745.359V41.1562H746.352V45.0156L750.898 41.1562H752.227L747.68 45.0312L752.547 49ZM761.992 41C763.169 41 764.151 41.3802 764.938 42.1406C765.714 42.9062 766.102 43.8854 766.102 45.0781C766.102 46.276 765.714 47.2552 764.938 48.0156C764.151 48.776 763.169 49.1562 761.992 49.1562C760.628 49.1771 759.576 48.6927 758.836 47.7031L758.805 47.6562H758.742V52.2031H757.75V41.1562H758.742V42.5078H758.805L758.836 42.4531C759.596 41.4688 760.648 40.9844 761.992 41ZM761.914 48.2031C762.857 48.2031 763.62 47.9036 764.203 47.3047C764.786 46.7057 765.078 45.9635 765.078 45.0781C765.078 44.1927 764.786 43.4505 764.203 42.8516C763.62 42.2578 762.857 41.9609 761.914 41.9609C760.987 41.9609 760.227 42.25 759.633 42.8281C759.039 43.4115 758.742 44.1615 758.742 45.0781C758.742 45.9948 759.039 46.7448 759.633 47.3281C760.216 47.9115 760.977 48.2031 761.914 48.2031ZM766.812 41.1562H767.883L771.102 48.1016H771.148L774.32 41.1562H775.375L771.578 49.3984C771.104 50.4245 770.656 51.1719 770.234 51.6406C769.802 52.1198 769.302 52.3594 768.734 52.3594C768.396 52.3594 768.122 52.3177 767.914 52.2344L767.805 52.2031V51.2734C768.023 51.3776 768.333 51.4297 768.734 51.4297C769.057 51.4297 769.357 51.2734 769.633 50.9609C769.904 50.6328 770.201 50.112 770.523 49.3984L770.586 49.2578L766.812 41.1562ZM780.898 39.8984C780.253 39.8984 779.685 40.0104 779.195 40.2344C778.711 40.4583 778.339 40.763 778.078 41.1484C777.599 41.862 777.359 42.6667 777.359 43.5625H777.406C777.427 43.5104 777.461 43.4427 777.508 43.3594C777.544 43.2917 777.656 43.1458 777.844 42.9219C778.036 42.6927 778.242 42.5026 778.461 42.3516C778.711 42.1745 779.042 42.0234 779.453 41.8984C779.875 41.7682 780.344 41.7031 780.859 41.7031C781.984 41.7031 782.909 42.0521 783.633 42.75C784.346 43.4479 784.703 44.3411 784.703 45.4297C784.703 46.5286 784.333 47.4245 783.594 48.1172C782.854 48.8099 781.875 49.1562 780.656 49.1562C779.38 49.1562 778.354 48.7135 777.578 47.8281C776.802 46.9427 776.414 45.7865 776.414 44.3594V43.6875C776.414 42.2865 776.786 41.1432 777.531 40.2578C778.271 39.3776 779.339 38.9375 780.734 38.9375C782.141 38.9375 782.844 38.5573 782.844 37.7969H783.867C783.867 38.4167 783.641 38.9219 783.188 39.3125C782.729 39.7031 781.966 39.8984 780.898 39.8984ZM782.867 47.4062C783.409 46.8802 783.68 46.2214 783.68 45.4297C783.68 44.6432 783.409 43.9844 782.867 43.4531C782.315 42.9271 781.583 42.6641 780.672 42.6641C779.828 42.6641 779.117 42.9297 778.539 43.4609C777.956 43.9974 777.664 44.6536 777.664 45.4297C777.664 46.2266 777.956 46.8854 778.539 47.4062C779.117 47.9375 779.828 48.2031 780.672 48.2031C781.589 48.2031 782.32 47.9375 782.867 47.4062ZM787.172 45.9766L787.906 41.1562H793.523V49H792.531V42.0859H788.734L788.141 45.9766C787.969 47.1172 787.724 47.9323 787.406 48.4219C787.089 48.9115 786.62 49.1562 786 49.1562C785.812 49.1562 785.641 49.1302 785.484 49.0781L785.406 49.0469V48.1172C785.526 48.1641 785.698 48.1927 785.922 48.2031C786.297 48.2031 786.57 48.0156 786.742 47.6406C786.914 47.2448 787.057 46.6901 787.172 45.9766ZM796.234 41.1562H797.227V44.6016H798.891C798.891 44.4609 798.935 44.224 799.023 43.8906C799.154 43.3802 799.38 42.8906 799.703 42.4219C800.099 41.8594 800.664 41.4531 801.398 41.2031C801.815 41.0677 802.271 41 802.766 41C803.854 41 804.75 41.3828 805.453 42.1484C806.156 42.9245 806.508 43.901 806.508 45.0781C806.508 46.2656 806.156 47.2422 805.453 48.0078C804.75 48.7734 803.854 49.1562 802.766 49.1562C802.276 49.1562 801.826 49.0911 801.414 48.9609C801.003 48.8307 800.661 48.6562 800.391 48.4375C800.141 48.2396 799.911 48.0026 799.703 47.7266C799.297 47.1797 799.031 46.5156 798.906 45.7344L798.891 45.5312H797.227V49H796.234V41.1562ZM804.75 47.3203C805.24 46.737 805.484 45.9896 805.484 45.0781C805.484 44.1667 805.24 43.4193 804.75 42.8359C804.26 42.2526 803.57 41.9609 802.68 41.9609C801.794 41.9609 801.107 42.2526 800.617 42.8359C800.128 43.4193 799.883 44.1667 799.883 45.0781C799.883 45.9896 800.128 46.737 800.617 47.3203C801.112 47.9089 801.799 48.2031 802.68 48.2031C803.565 48.2031 804.255 47.9089 804.75 47.3203Z" fill="#213A8B"/>
<path d="M0 67H768C790.091 67 808 84.9086 808 107V450C808 472.091 790.091 490 768 490H40C17.9086 490 0 472.091 0 450V67Z" fill="#FDFDFD"/>
<path d="M1 68H768C789.539 68 807 85.4609 807 107V450C807 471.539 789.539 489 768 489H40C18.4609 489 1 471.539 1 450V68Z" stroke="#213A8B" stroke-opacity="0.6" stroke-width="2"/>
<line x1="25" y1="123" x2="729" y2="123" stroke="#1D1F24" stroke-opacity="0.1" stroke-width="2"/>
<line x1="25" y1="183" x2="729" y2="183" stroke="#1D1F24" stroke-opacity="0.1" stroke-width="2"/>
<line x1="25" y1="243" x2="729" y2="243" stroke="#1D1F24" stroke-opacity="0.1" stroke-width="2"/>
<line x1="25" y1="303" x2="729" y2="303" stroke="#1D1F24" stroke-opacity="0.1" stroke-width="2"/>
<line x1="25" y1="363" x2="729" y2="363" stroke="#1D1F24" stroke-opacity="0.1" stroke-width="2"/>
<line x1="25" y1="423" x2="729" y2="423" stroke="#1D1F24" stroke-opacity="0.1" stroke-width="2"/>
<path d="M28.0547 344.109L25.6406 346.258V344.992L28.0703 342.797H29.1094V354H28.0547V344.109ZM40.5391 352.523C39.6328 353.612 38.4062 354.156 36.8594 354.156C35.3125 354.156 34.0885 353.612 33.1875 352.523C32.2865 351.435 31.8359 350.06 31.8359 348.398C31.8359 346.737 32.2865 345.362 33.1875 344.273C34.0885 343.185 35.3125 342.641 36.8594 342.641C38.4062 342.641 39.6328 343.185 40.5391 344.273C41.4401 345.362 41.8906 346.737 41.8906 348.398C41.8906 350.06 41.4401 351.435 40.5391 352.523ZM40.7969 348.398C40.7969 347.023 40.4479 345.885 39.75 344.984C39.0521 344.083 38.0911 343.633 36.8672 343.633C35.638 343.633 34.6745 344.083 33.9766 344.984C33.2786 345.885 32.9297 347.023 32.9297 348.398C32.9297 349.773 33.2786 350.911 33.9766 351.812C34.6693 352.719 35.6328 353.172 36.8672 353.172C38.0911 353.172 39.0521 352.719 39.75 351.812C40.4479 350.911 40.7969 349.773 40.7969 348.398ZM43.9922 353.977C43.862 353.862 43.7969 353.703 43.7969 353.5C43.7969 353.297 43.862 353.138 43.9922 353.023C44.1224 352.904 44.2865 352.844 44.4844 352.844C44.6875 352.844 44.8542 352.904 44.9844 353.023C45.1146 353.138 45.1797 353.297 45.1797 353.5C45.1797 353.703 45.1146 353.862 44.9844 353.977C44.8542 354.096 44.6875 354.156 44.4844 354.156C44.2865 354.156 44.1224 354.096 43.9922 353.977ZM49.0234 344.109L46.6094 346.258V344.992L49.0391 342.797H50.0781V354H49.0234V344.109Z" fill="black"/>
<path d="M28.0547 404.109L25.6406 406.258V404.992L28.0703 402.797H29.1094V414H28.0547V404.109ZM40.5391 412.523C39.6328 413.612 38.4062 414.156 36.8594 414.156C35.3125 414.156 34.0885 413.612 33.1875 412.523C32.2865 411.435 31.8359 410.06 31.8359 408.398C31.8359 406.737 32.2865 405.362 33.1875 404.273C34.0885 403.185 35.3125 402.641 36.8594 402.641C38.4062 402.641 39.6328 403.185 40.5391 404.273C41.4401 405.362 41.8906 406.737 41.8906 408.398C41.8906 410.06 41.4401 411.435 40.5391 412.523ZM40.7969 408.398C40.7969 407.023 40.4479 405.885 39.75 404.984C39.0521 404.083 38.0911 403.633 36.8672 403.633C35.638 403.633 34.6745 404.083 33.9766 404.984C33.2786 405.885 32.9297 407.023 32.9297 408.398C32.9297 409.773 33.2786 410.911 33.9766 411.812C34.6693 412.719 35.6328 413.172 36.8672 413.172C38.0911 413.172 39.0521 412.719 39.75 411.812C40.4479 410.911 40.7969 409.773 40.7969 408.398ZM43.9922 413.977C43.862 413.862 43.7969 413.703 43.7969 413.5C43.7969 413.297 43.862 413.138 43.9922 413.023C44.1224 412.904 44.2865 412.844 44.4844 412.844C44.6875 412.844 44.8542 412.904 44.9844 413.023C45.1146 413.138 45.1797 413.297 45.1797 413.5C45.1797 413.703 45.1146 413.862 44.9844 413.977C44.8542 414.096 44.6875 414.156 44.4844 414.156C44.2865 414.156 44.1224 414.096 43.9922 413.977ZM49.0234 404.109L46.6094 406.258V404.992L49.0391 402.797H50.0781V414H49.0234V404.109Z" fill="black"/>
<path d="M28.0547 284.109L25.6406 286.258V284.992L28.0703 282.797H29.1094V294H28.0547V284.109ZM40.5391 292.523C39.6328 293.612 38.4062 294.156 36.8594 294.156C35.3125 294.156 34.0885 293.612 33.1875 292.523C32.2865 291.435 31.8359 290.06 31.8359 288.398C31.8359 286.737 32.2865 285.362 33.1875 284.273C34.0885 283.185 35.3125 282.641 36.8594 282.641C38.4062 282.641 39.6328 283.185 40.5391 284.273C41.4401 285.362 41.8906 286.737 41.8906 288.398C41.8906 290.06 41.4401 291.435 40.5391 292.523ZM40.7969 288.398C40.7969 287.023 40.4479 285.885 39.75 284.984C39.0521 284.083 38.0911 283.633 36.8672 283.633C35.638 283.633 34.6745 284.083 33.9766 284.984C33.2786 285.885 32.9297 287.023 32.9297 288.398C32.9297 289.773 33.2786 290.911 33.9766 291.812C34.6693 292.719 35.6328 293.172 36.8672 293.172C38.0911 293.172 39.0521 292.719 39.75 291.812C40.4479 290.911 40.7969 289.773 40.7969 288.398ZM43.9922 293.977C43.862 293.862 43.7969 293.703 43.7969 293.5C43.7969 293.297 43.862 293.138 43.9922 293.023C44.1224 292.904 44.2865 292.844 44.4844 292.844C44.6875 292.844 44.8542 292.904 44.9844 293.023C45.1146 293.138 45.1797 293.297 45.1797 293.5C45.1797 293.703 45.1146 293.862 44.9844 293.977C44.8542 294.096 44.6875 294.156 44.4844 294.156C44.2865 294.156 44.1224 294.096 43.9922 293.977ZM51.7422 286.578C53.0078 286.578 54.0339 286.917 54.8203 287.594C55.6068 288.271 56 289.195 56 290.367C56 291.539 55.6068 292.464 54.8203 293.141C54.0339 293.818 52.9922 294.156 51.6953 294.156C50.9609 294.156 50.2995 294.052 49.7109 293.844C49.1276 293.63 48.6745 293.346 48.3516 292.992C47.7214 292.31 47.4062 291.602 47.4062 290.867H48.4609C48.4609 291.336 48.6797 291.82 49.1172 292.32C49.3464 292.586 49.6875 292.799 50.1406 292.961C50.599 293.122 51.1172 293.203 51.6953 293.203C52.6745 293.203 53.4609 292.953 54.0547 292.453C54.6484 291.964 54.9453 291.268 54.9453 290.367C54.9453 289.466 54.6484 288.768 54.0547 288.273C53.4557 287.784 52.6536 287.539 51.6484 287.539C51.1953 287.539 50.7734 287.591 50.3828 287.695C49.9974 287.794 49.6953 287.924 49.4766 288.086C49.0234 288.424 48.75 288.711 48.6562 288.945L48.5781 289.102H47.5234V282.797H55.2344V283.758H48.5781V287.664H48.6094C48.6667 287.57 48.8151 287.443 49.0547 287.281C49.2266 287.167 49.4271 287.057 49.6562 286.953C50.2396 286.703 50.9349 286.578 51.7422 286.578Z" fill="black"/>
<path d="M27.0547 164.109L24.6406 166.258V164.992L27.0703 162.797H28.1094V174H27.0547V164.109ZM39.5391 172.523C38.6328 173.612 37.4062 174.156 35.8594 174.156C34.3125 174.156 33.0885 173.612 32.1875 172.523C31.2865 171.435 30.8359 170.06 30.8359 168.398C30.8359 166.737 31.2865 165.362 32.1875 164.273C33.0885 163.185 34.3125 162.641 35.8594 162.641C37.4062 162.641 38.6328 163.185 39.5391 164.273C40.4401 165.362 40.8906 166.737 40.8906 168.398C40.8906 170.06 40.4401 171.435 39.5391 172.523ZM39.7969 168.398C39.7969 167.023 39.4479 165.885 38.75 164.984C38.0521 164.083 37.0911 163.633 35.8672 163.633C34.638 163.633 33.6745 164.083 32.9766 164.984C32.2786 165.885 31.9297 167.023 31.9297 168.398C31.9297 169.773 32.2786 170.911 32.9766 171.812C33.6693 172.719 34.6328 173.172 35.8672 173.172C37.0911 173.172 38.0521 172.719 38.75 171.812C39.4479 170.911 39.7969 169.773 39.7969 168.398ZM42.9922 173.977C42.862 173.862 42.7969 173.703 42.7969 173.5C42.7969 173.297 42.862 173.138 42.9922 173.023C43.1224 172.904 43.2865 172.844 43.4844 172.844C43.6875 172.844 43.8542 172.904 43.9844 173.023C44.1146 173.138 44.1797 173.297 44.1797 173.5C44.1797 173.703 44.1146 173.862 43.9844 173.977C43.8542 174.096 43.6875 174.156 43.4844 174.156C43.2865 174.156 43.1224 174.096 42.9922 173.977ZM50.7422 166.578C52.0078 166.578 53.0339 166.917 53.8203 167.594C54.6068 168.271 55 169.195 55 170.367C55 171.539 54.6068 172.464 53.8203 173.141C53.0339 173.818 51.9922 174.156 50.6953 174.156C49.9609 174.156 49.2995 174.052 48.7109 173.844C48.1276 173.63 47.6745 173.346 47.3516 172.992C46.7214 172.31 46.4062 171.602 46.4062 170.867H47.4609C47.4609 171.336 47.6797 171.82 48.1172 172.32C48.3464 172.586 48.6875 172.799 49.1406 172.961C49.599 173.122 50.1172 173.203 50.6953 173.203C51.6745 173.203 52.4609 172.953 53.0547 172.453C53.6484 171.964 53.9453 171.268 53.9453 170.367C53.9453 169.466 53.6484 168.768 53.0547 168.273C52.4557 167.784 51.6536 167.539 50.6484 167.539C50.1953 167.539 49.7734 167.591 49.3828 167.695C48.9974 167.794 48.6953 167.924 48.4766 168.086C48.0234 168.424 47.75 168.711 47.6562 168.945L47.5781 169.102H46.5234V162.797H54.2344V163.758H47.5781V167.664H47.6094C47.6667 167.57 47.8151 167.443 48.0547 167.281C48.2266 167.167 48.4271 167.057 48.6562 166.953C49.2396 166.703 49.9349 166.578 50.7422 166.578Z" fill="black"/>
<path d="M27.0547 224.109L24.6406 226.258V224.992L27.0703 222.797H28.1094V234H27.0547V224.109ZM39.5391 232.523C38.6328 233.612 37.4062 234.156 35.8594 234.156C34.3125 234.156 33.0885 233.612 32.1875 232.523C31.2865 231.435 30.8359 230.06 30.8359 228.398C30.8359 226.737 31.2865 225.362 32.1875 224.273C33.0885 223.185 34.3125 222.641 35.8594 222.641C37.4062 222.641 38.6328 223.185 39.5391 224.273C40.4401 225.362 40.8906 226.737 40.8906 228.398C40.8906 230.06 40.4401 231.435 39.5391 232.523ZM39.7969 228.398C39.7969 227.023 39.4479 225.885 38.75 224.984C38.0521 224.083 37.0911 223.633 35.8672 223.633C34.638 223.633 33.6745 224.083 32.9766 224.984C32.2786 225.885 31.9297 227.023 31.9297 228.398C31.9297 229.773 32.2786 230.911 32.9766 231.812C33.6693 232.719 34.6328 233.172 35.8672 233.172C37.0911 233.172 38.0521 232.719 38.75 231.812C39.4479 230.911 39.7969 229.773 39.7969 228.398ZM42.9922 233.977C42.862 233.862 42.7969 233.703 42.7969 233.5C42.7969 233.297 42.862 233.138 42.9922 233.023C43.1224 232.904 43.2865 232.844 43.4844 232.844C43.6875 232.844 43.8542 232.904 43.9844 233.023C44.1146 233.138 44.1797 233.297 44.1797 233.5C44.1797 233.703 44.1146 233.862 43.9844 233.977C43.8542 234.096 43.6875 234.156 43.4844 234.156C43.2865 234.156 43.1224 234.096 42.9922 233.977ZM50.7422 226.578C52.0078 226.578 53.0339 226.917 53.8203 227.594C54.6068 228.271 55 229.195 55 230.367C55 231.539 54.6068 232.464 53.8203 233.141C53.0339 233.818 51.9922 234.156 50.6953 234.156C49.9609 234.156 49.2995 234.052 48.7109 233.844C48.1276 233.63 47.6745 233.346 47.3516 232.992C46.7214 232.31 46.4062 231.602 46.4062 230.867H47.4609C47.4609 231.336 47.6797 231.82 48.1172 232.32C48.3464 232.586 48.6875 232.799 49.1406 232.961C49.599 233.122 50.1172 233.203 50.6953 233.203C51.6745 233.203 52.4609 232.953 53.0547 232.453C53.6484 231.964 53.9453 231.268 53.9453 230.367C53.9453 229.466 53.6484 228.768 53.0547 228.273C52.4557 227.784 51.6536 227.539 50.6484 227.539C50.1953 227.539 49.7734 227.591 49.3828 227.695C48.9974 227.794 48.6953 227.924 48.4766 228.086C48.0234 228.424 47.75 228.711 47.6562 228.945L47.5781 229.102H46.5234V222.797H54.2344V223.758H47.5781V227.664H47.6094C47.6667 227.57 47.8151 227.443 48.0547 227.281C48.2266 227.167 48.4271 227.057 48.6562 226.953C49.2396 226.703 49.9349 226.578 50.7422 226.578Z" fill="black"/>
<path d="M27.0547 104.109L24.6406 106.258V104.992L27.0703 102.797H28.1094V114H27.0547V104.109ZM39.5391 112.523C38.6328 113.612 37.4062 114.156 35.8594 114.156C34.3125 114.156 33.0885 113.612 32.1875 112.523C31.2865 111.435 30.8359 110.06 30.8359 108.398C30.8359 106.737 31.2865 105.362 32.1875 104.273C33.0885 103.185 34.3125 102.641 35.8594 102.641C37.4062 102.641 38.6328 103.185 39.5391 104.273C40.4401 105.362 40.8906 106.737 40.8906 108.398C40.8906 110.06 40.4401 111.435 39.5391 112.523ZM39.7969 108.398C39.7969 107.023 39.4479 105.885 38.75 104.984C38.0521 104.083 37.0911 103.633 35.8672 103.633C34.638 103.633 33.6745 104.083 32.9766 104.984C32.2786 105.885 31.9297 107.023 31.9297 108.398C31.9297 109.773 32.2786 110.911 32.9766 111.812C33.6693 112.719 34.6328 113.172 35.8672 113.172C37.0911 113.172 38.0521 112.719 38.75 111.812C39.4479 110.911 39.7969 109.773 39.7969 108.398ZM42.9922 113.977C42.862 113.862 42.7969 113.703 42.7969 113.5C42.7969 113.297 42.862 113.138 42.9922 113.023C43.1224 112.904 43.2865 112.844 43.4844 112.844C43.6875 112.844 43.8542 112.904 43.9844 113.023C44.1146 113.138 44.1797 113.297 44.1797 113.5C44.1797 113.703 44.1146 113.862 43.9844 113.977C43.8542 114.096 43.6875 114.156 43.4844 114.156C43.2865 114.156 43.1224 114.096 42.9922 113.977ZM50.7422 106.578C52.0078 106.578 53.0339 106.917 53.8203 107.594C54.6068 108.271 55 109.195 55 110.367C55 111.539 54.6068 112.464 53.8203 113.141C53.0339 113.818 51.9922 114.156 50.6953 114.156C49.9609 114.156 49.2995 114.052 48.7109 113.844C48.1276 113.63 47.6745 113.346 47.3516 112.992C46.7214 112.31 46.4062 111.602 46.4062 110.867H47.4609C47.4609 111.336 47.6797 111.82 48.1172 112.32C48.3464 112.586 48.6875 112.799 49.1406 112.961C49.599 113.122 50.1172 113.203 50.6953 113.203C51.6745 113.203 52.4609 112.953 53.0547 112.453C53.6484 111.964 53.9453 111.268 53.9453 110.367C53.9453 109.466 53.6484 108.768 53.0547 108.273C52.4557 107.784 51.6536 107.539 50.6484 107.539C50.1953 107.539 49.7734 107.591 49.3828 107.695C48.9974 107.794 48.6953 107.924 48.4766 108.086C48.0234 108.424 47.75 108.711 47.6562 108.945L47.5781 109.102H46.5234V102.797H54.2344V103.758H47.5781V107.664H47.6094C47.6667 107.57 47.8151 107.443 48.0547 107.281C48.2266 107.167 48.4271 107.057 48.6562 106.953C49.2396 106.703 49.9349 106.578 50.7422 106.578Z" fill="black"/>
<circle cx="770" cy="265" r="21" transform="rotate(-180 770 265)" stroke="#213A8B" stroke-width="2"/>
<line x1="764.57" y1="274.499" x2="776.827" y2="264.214" stroke="#213A8B" stroke-width="2"/>
<line x1="764.856" y1="254.214" x2="777.112" y2="264.499" stroke="#213A8B" stroke-width="2"/>
<path d="M72.3125 449.07H73.4297C73.4349 449.086 73.4453 449.12 73.4609 449.172C73.4818 449.219 73.5 449.258 73.5156 449.289C73.5469 449.388 73.6432 449.557 73.8047 449.797C73.9609 450.036 74.1432 450.25 74.3516 450.438C74.5651 450.63 74.862 450.799 75.2422 450.945C75.6328 451.096 76.0547 451.172 76.5078 451.172C77.3255 451.172 78.0026 450.943 78.5391 450.484C79.0859 450.026 79.4714 449.448 79.6953 448.75C79.9245 448.036 80.0391 447.221 80.0391 446.305H80.0078C79.9818 446.367 79.9479 446.432 79.9062 446.5C79.8542 446.578 79.7344 446.724 79.5469 446.938C79.3594 447.141 79.1406 447.323 78.8906 447.484C78.6615 447.641 78.3177 447.786 77.8594 447.922C77.4062 448.057 76.9219 448.125 76.4062 448.125C75.1979 448.125 74.1979 447.779 73.4062 447.086C72.6042 446.393 72.2031 445.492 72.2031 444.383C72.2031 443.232 72.599 442.32 73.3906 441.648C74.1823 440.977 75.2318 440.641 76.5391 440.641C77.9974 440.641 79.1224 441.107 79.9141 442.039C80.7005 442.966 81.0938 444.227 81.0938 445.82V446.383C81.0938 448.044 80.7031 449.422 79.9219 450.516C79.1302 451.609 77.9922 452.156 76.5078 452.156C75.8932 452.156 75.3438 452.065 74.8594 451.883C74.349 451.701 73.9479 451.479 73.6562 451.219C73.3542 450.953 73.099 450.672 72.8906 450.375C72.5052 449.833 72.3125 449.398 72.3125 449.07ZM76.5391 441.633C75.5755 441.633 74.7917 441.88 74.1875 442.375C73.5885 442.865 73.2891 443.534 73.2891 444.383C73.2891 445.232 73.5938 445.901 74.2031 446.391C74.8073 446.885 75.5859 447.133 76.5391 447.133C77.4297 447.133 78.1849 446.878 78.8047 446.367C79.4141 445.862 79.7188 445.201 79.7188 444.383C79.7188 443.565 79.4219 442.901 78.8281 442.391C78.2292 441.885 77.4661 441.633 76.5391 441.633ZM95.2109 445.266H95.1797L92.5234 449.891H91.1797L88.5234 445.266H88.4922V452H87.5V444.156H89.0391L91.8359 449.117H91.8672L94.6719 444.156H96.2031V452H95.2109V445.266ZM98.5234 449.859C98.5234 449.099 98.8672 448.518 99.5547 448.117C100.237 447.721 101.099 447.523 102.141 447.523C102.688 447.523 103.211 447.591 103.711 447.727C104.206 447.867 104.557 448 104.766 448.125L105.102 448.336V446.898C105.102 446.258 104.859 445.768 104.375 445.43C103.885 445.096 103.279 444.93 102.555 444.93C101.846 444.93 101.232 445.076 100.711 445.367C100.19 445.654 99.9297 446.013 99.9297 446.445H98.9375C98.9635 445.799 99.2839 445.232 99.8984 444.742C100.518 444.247 101.393 444 102.523 444C103.544 444 104.393 444.245 105.07 444.734C105.753 445.229 106.094 445.951 106.094 446.898V450.211C106.094 450.586 106.151 450.852 106.266 451.008C106.385 451.159 106.583 451.234 106.859 451.234C107.036 451.234 107.18 451.214 107.289 451.172L107.336 451.133V452C107.19 452.073 106.977 452.109 106.695 452.109C106.201 452.109 105.846 451.997 105.633 451.773C105.414 451.56 105.284 451.391 105.242 451.266L105.227 451.172H105.18C105.143 451.234 104.987 451.346 104.711 451.508C104.518 451.628 104.32 451.729 104.117 451.812C103.612 452.042 102.974 452.156 102.203 452.156C101.125 452.156 100.242 451.969 99.5547 451.594C98.8672 451.219 98.5234 450.641 98.5234 449.859ZM99.5469 449.859C99.5469 450.776 100.474 451.234 102.328 451.234C102.875 451.234 103.383 451.154 103.852 450.992C104.315 450.831 104.622 450.698 104.773 450.594C104.914 450.49 105.023 450.404 105.102 450.336V449.234C105.065 449.188 104.964 449.112 104.797 449.008C104.609 448.898 104.292 448.779 103.844 448.648C103.375 448.513 102.87 448.445 102.328 448.445C101.234 448.445 100.445 448.635 99.9609 449.016C99.6849 449.234 99.5469 449.516 99.5469 449.859ZM113.258 444C114.435 444 115.417 444.38 116.203 445.141C116.979 445.906 117.367 446.885 117.367 448.078C117.367 449.276 116.979 450.255 116.203 451.016C115.417 451.776 114.435 452.156 113.258 452.156C111.893 452.177 110.841 451.693 110.102 450.703L110.07 450.656H110.008V455.203H109.016V444.156H110.008V445.508H110.07L110.102 445.453C110.862 444.469 111.914 443.984 113.258 444ZM113.18 451.203C114.122 451.203 114.885 450.904 115.469 450.305C116.052 449.706 116.344 448.964 116.344 448.078C116.344 447.193 116.052 446.451 115.469 445.852C114.885 445.258 114.122 444.961 113.18 444.961C112.253 444.961 111.492 445.25 110.898 445.828C110.305 446.411 110.008 447.161 110.008 448.078C110.008 448.995 110.305 449.745 110.898 450.328C111.482 450.911 112.242 451.203 113.18 451.203ZM118.32 444.156H125.773V445.086H122.539V452H121.547V445.086H118.32V444.156ZM126.492 449.859C126.492 449.099 126.836 448.518 127.523 448.117C128.206 447.721 129.068 447.523 130.109 447.523C130.656 447.523 131.18 447.591 131.68 447.727C132.174 447.867 132.526 448 132.734 448.125L133.07 448.336V446.898C133.07 446.258 132.828 445.768 132.344 445.43C131.854 445.096 131.247 444.93 130.523 444.93C129.815 444.93 129.201 445.076 128.68 445.367C128.159 445.654 127.898 446.013 127.898 446.445H126.906C126.932 445.799 127.253 445.232 127.867 444.742C128.487 444.247 129.362 444 130.492 444C131.513 444 132.362 444.245 133.039 444.734C133.721 445.229 134.062 445.951 134.062 446.898V450.211C134.062 450.586 134.12 450.852 134.234 451.008C134.354 451.159 134.552 451.234 134.828 451.234C135.005 451.234 135.148 451.214 135.258 451.172L135.305 451.133V452C135.159 452.073 134.945 452.109 134.664 452.109C134.169 452.109 133.815 451.997 133.602 451.773C133.383 451.56 133.253 451.391 133.211 451.266L133.195 451.172H133.148C133.112 451.234 132.956 451.346 132.68 451.508C132.487 451.628 132.289 451.729 132.086 451.812C131.581 452.042 130.943 452.156 130.172 452.156C129.094 452.156 128.211 451.969 127.523 451.594C126.836 451.219 126.492 450.641 126.492 449.859ZM127.516 449.859C127.516 450.776 128.443 451.234 130.297 451.234C130.844 451.234 131.352 451.154 131.82 450.992C132.284 450.831 132.591 450.698 132.742 450.594C132.883 450.49 132.992 450.404 133.07 450.336V449.234C133.034 449.188 132.932 449.112 132.766 449.008C132.578 448.898 132.26 448.779 131.812 448.648C131.344 448.513 130.839 448.445 130.297 448.445C129.203 448.445 128.414 448.635 127.93 449.016C127.654 449.234 127.516 449.516 127.516 449.859Z" fill="black"/>
<line x1="175.5" y1="454" x2="175.5" y2="424" stroke="#1D1F24" stroke-opacity="0.1"/>
<path d="M217.312 449.07H218.43C218.435 449.086 218.445 449.12 218.461 449.172C218.482 449.219 218.5 449.258 218.516 449.289C218.547 449.388 218.643 449.557 218.805 449.797C218.961 450.036 219.143 450.25 219.352 450.438C219.565 450.63 219.862 450.799 220.242 450.945C220.633 451.096 221.055 451.172 221.508 451.172C222.326 451.172 223.003 450.943 223.539 450.484C224.086 450.026 224.471 449.448 224.695 448.75C224.924 448.036 225.039 447.221 225.039 446.305H225.008C224.982 446.367 224.948 446.432 224.906 446.5C224.854 446.578 224.734 446.724 224.547 446.938C224.359 447.141 224.141 447.323 223.891 447.484C223.661 447.641 223.318 447.786 222.859 447.922C222.406 448.057 221.922 448.125 221.406 448.125C220.198 448.125 219.198 447.779 218.406 447.086C217.604 446.393 217.203 445.492 217.203 444.383C217.203 443.232 217.599 442.32 218.391 441.648C219.182 440.977 220.232 440.641 221.539 440.641C222.997 440.641 224.122 441.107 224.914 442.039C225.701 442.966 226.094 444.227 226.094 445.82V446.383C226.094 448.044 225.703 449.422 224.922 450.516C224.13 451.609 222.992 452.156 221.508 452.156C220.893 452.156 220.344 452.065 219.859 451.883C219.349 451.701 218.948 451.479 218.656 451.219C218.354 450.953 218.099 450.672 217.891 450.375C217.505 449.833 217.312 449.398 217.312 449.07ZM221.539 441.633C220.576 441.633 219.792 441.88 219.188 442.375C218.589 442.865 218.289 443.534 218.289 444.383C218.289 445.232 218.594 445.901 219.203 446.391C219.807 446.885 220.586 447.133 221.539 447.133C222.43 447.133 223.185 446.878 223.805 446.367C224.414 445.862 224.719 445.201 224.719 444.383C224.719 443.565 224.422 442.901 223.828 442.391C223.229 441.885 222.466 441.633 221.539 441.633ZM240.211 445.266H240.18L237.523 449.891H236.18L233.523 445.266H233.492V452H232.5V444.156H234.039L236.836 449.117H236.867L239.672 444.156H241.203V452H240.211V445.266ZM243.523 449.859C243.523 449.099 243.867 448.518 244.555 448.117C245.237 447.721 246.099 447.523 247.141 447.523C247.688 447.523 248.211 447.591 248.711 447.727C249.206 447.867 249.557 448 249.766 448.125L250.102 448.336V446.898C250.102 446.258 249.859 445.768 249.375 445.43C248.885 445.096 248.279 444.93 247.555 444.93C246.846 444.93 246.232 445.076 245.711 445.367C245.19 445.654 244.93 446.013 244.93 446.445H243.938C243.964 445.799 244.284 445.232 244.898 444.742C245.518 444.247 246.393 444 247.523 444C248.544 444 249.393 444.245 250.07 444.734C250.753 445.229 251.094 445.951 251.094 446.898V450.211C251.094 450.586 251.151 450.852 251.266 451.008C251.385 451.159 251.583 451.234 251.859 451.234C252.036 451.234 252.18 451.214 252.289 451.172L252.336 451.133V452C252.19 452.073 251.977 452.109 251.695 452.109C251.201 452.109 250.846 451.997 250.633 451.773C250.414 451.56 250.284 451.391 250.242 451.266L250.227 451.172H250.18C250.143 451.234 249.987 451.346 249.711 451.508C249.518 451.628 249.32 451.729 249.117 451.812C248.612 452.042 247.974 452.156 247.203 452.156C246.125 452.156 245.242 451.969 244.555 451.594C243.867 451.219 243.523 450.641 243.523 449.859ZM244.547 449.859C244.547 450.776 245.474 451.234 247.328 451.234C247.875 451.234 248.383 451.154 248.852 450.992C249.315 450.831 249.622 450.698 249.773 450.594C249.914 450.49 250.023 450.404 250.102 450.336V449.234C250.065 449.188 249.964 449.112 249.797 449.008C249.609 448.898 249.292 448.779 248.844 448.648C248.375 448.513 247.87 448.445 247.328 448.445C246.234 448.445 245.445 448.635 244.961 449.016C244.685 449.234 244.547 449.516 244.547 449.859ZM258.258 444C259.435 444 260.417 444.38 261.203 445.141C261.979 445.906 262.367 446.885 262.367 448.078C262.367 449.276 261.979 450.255 261.203 451.016C260.417 451.776 259.435 452.156 258.258 452.156C256.893 452.177 255.841 451.693 255.102 450.703L255.07 450.656H255.008V455.203H254.016V444.156H255.008V445.508H255.07L255.102 445.453C255.862 444.469 256.914 443.984 258.258 444ZM258.18 451.203C259.122 451.203 259.885 450.904 260.469 450.305C261.052 449.706 261.344 448.964 261.344 448.078C261.344 447.193 261.052 446.451 260.469 445.852C259.885 445.258 259.122 444.961 258.18 444.961C257.253 444.961 256.492 445.25 255.898 445.828C255.305 446.411 255.008 447.161 255.008 448.078C255.008 448.995 255.305 449.745 255.898 450.328C256.482 450.911 257.242 451.203 258.18 451.203ZM263.32 444.156H270.773V445.086H267.539V452H266.547V445.086H263.32V444.156ZM271.492 449.859C271.492 449.099 271.836 448.518 272.523 448.117C273.206 447.721 274.068 447.523 275.109 447.523C275.656 447.523 276.18 447.591 276.68 447.727C277.174 447.867 277.526 448 277.734 448.125L278.07 448.336V446.898C278.07 446.258 277.828 445.768 277.344 445.43C276.854 445.096 276.247 444.93 275.523 444.93C274.815 444.93 274.201 445.076 273.68 445.367C273.159 445.654 272.898 446.013 272.898 446.445H271.906C271.932 445.799 272.253 445.232 272.867 444.742C273.487 444.247 274.362 444 275.492 444C276.513 444 277.362 444.245 278.039 444.734C278.721 445.229 279.062 445.951 279.062 446.898V450.211C279.062 450.586 279.12 450.852 279.234 451.008C279.354 451.159 279.552 451.234 279.828 451.234C280.005 451.234 280.148 451.214 280.258 451.172L280.305 451.133V452C280.159 452.073 279.945 452.109 279.664 452.109C279.169 452.109 278.815 451.997 278.602 451.773C278.383 451.56 278.253 451.391 278.211 451.266L278.195 451.172H278.148C278.112 451.234 277.956 451.346 277.68 451.508C277.487 451.628 277.289 451.729 277.086 451.812C276.581 452.042 275.943 452.156 275.172 452.156C274.094 452.156 273.211 451.969 272.523 451.594C271.836 451.219 271.492 450.641 271.492 449.859ZM272.516 449.859C272.516 450.776 273.443 451.234 275.297 451.234C275.844 451.234 276.352 451.154 276.82 450.992C277.284 450.831 277.591 450.698 277.742 450.594C277.883 450.49 277.992 450.404 278.07 450.336V449.234C278.034 449.188 277.932 449.112 277.766 449.008C277.578 448.898 277.26 448.779 276.812 448.648C276.344 448.513 275.839 448.445 275.297 448.445C274.203 448.445 273.414 448.635 272.93 449.016C272.654 449.234 272.516 449.516 272.516 449.859Z" fill="black"/>
<line x1="320.5" y1="454" x2="320.5" y2="424" stroke="#1D1F24" stroke-opacity="0.1"/>
<path d="M362.312 449.07H363.43C363.435 449.086 363.445 449.12 363.461 449.172C363.482 449.219 363.5 449.258 363.516 449.289C363.547 449.388 363.643 449.557 363.805 449.797C363.961 450.036 364.143 450.25 364.352 450.438C364.565 450.63 364.862 450.799 365.242 450.945C365.633 451.096 366.055 451.172 366.508 451.172C367.326 451.172 368.003 450.943 368.539 450.484C369.086 450.026 369.471 449.448 369.695 448.75C369.924 448.036 370.039 447.221 370.039 446.305H370.008C369.982 446.367 369.948 446.432 369.906 446.5C369.854 446.578 369.734 446.724 369.547 446.938C369.359 447.141 369.141 447.323 368.891 447.484C368.661 447.641 368.318 447.786 367.859 447.922C367.406 448.057 366.922 448.125 366.406 448.125C365.198 448.125 364.198 447.779 363.406 447.086C362.604 446.393 362.203 445.492 362.203 444.383C362.203 443.232 362.599 442.32 363.391 441.648C364.182 440.977 365.232 440.641 366.539 440.641C367.997 440.641 369.122 441.107 369.914 442.039C370.701 442.966 371.094 444.227 371.094 445.82V446.383C371.094 448.044 370.703 449.422 369.922 450.516C369.13 451.609 367.992 452.156 366.508 452.156C365.893 452.156 365.344 452.065 364.859 451.883C364.349 451.701 363.948 451.479 363.656 451.219C363.354 450.953 363.099 450.672 362.891 450.375C362.505 449.833 362.312 449.398 362.312 449.07ZM366.539 441.633C365.576 441.633 364.792 441.88 364.188 442.375C363.589 442.865 363.289 443.534 363.289 444.383C363.289 445.232 363.594 445.901 364.203 446.391C364.807 446.885 365.586 447.133 366.539 447.133C367.43 447.133 368.185 446.878 368.805 446.367C369.414 445.862 369.719 445.201 369.719 444.383C369.719 443.565 369.422 442.901 368.828 442.391C368.229 441.885 367.466 441.633 366.539 441.633ZM385.211 445.266H385.18L382.523 449.891H381.18L378.523 445.266H378.492V452H377.5V444.156H379.039L381.836 449.117H381.867L384.672 444.156H386.203V452H385.211V445.266ZM388.523 449.859C388.523 449.099 388.867 448.518 389.555 448.117C390.237 447.721 391.099 447.523 392.141 447.523C392.688 447.523 393.211 447.591 393.711 447.727C394.206 447.867 394.557 448 394.766 448.125L395.102 448.336V446.898C395.102 446.258 394.859 445.768 394.375 445.43C393.885 445.096 393.279 444.93 392.555 444.93C391.846 444.93 391.232 445.076 390.711 445.367C390.19 445.654 389.93 446.013 389.93 446.445H388.938C388.964 445.799 389.284 445.232 389.898 444.742C390.518 444.247 391.393 444 392.523 444C393.544 444 394.393 444.245 395.07 444.734C395.753 445.229 396.094 445.951 396.094 446.898V450.211C396.094 450.586 396.151 450.852 396.266 451.008C396.385 451.159 396.583 451.234 396.859 451.234C397.036 451.234 397.18 451.214 397.289 451.172L397.336 451.133V452C397.19 452.073 396.977 452.109 396.695 452.109C396.201 452.109 395.846 451.997 395.633 451.773C395.414 451.56 395.284 451.391 395.242 451.266L395.227 451.172H395.18C395.143 451.234 394.987 451.346 394.711 451.508C394.518 451.628 394.32 451.729 394.117 451.812C393.612 452.042 392.974 452.156 392.203 452.156C391.125 452.156 390.242 451.969 389.555 451.594C388.867 451.219 388.523 450.641 388.523 449.859ZM389.547 449.859C389.547 450.776 390.474 451.234 392.328 451.234C392.875 451.234 393.383 451.154 393.852 450.992C394.315 450.831 394.622 450.698 394.773 450.594C394.914 450.49 395.023 450.404 395.102 450.336V449.234C395.065 449.188 394.964 449.112 394.797 449.008C394.609 448.898 394.292 448.779 393.844 448.648C393.375 448.513 392.87 448.445 392.328 448.445C391.234 448.445 390.445 448.635 389.961 449.016C389.685 449.234 389.547 449.516 389.547 449.859ZM403.258 444C404.435 444 405.417 444.38 406.203 445.141C406.979 445.906 407.367 446.885 407.367 448.078C407.367 449.276 406.979 450.255 406.203 451.016C405.417 451.776 404.435 452.156 403.258 452.156C401.893 452.177 400.841 451.693 400.102 450.703L400.07 450.656H400.008V455.203H399.016V444.156H400.008V445.508H400.07L400.102 445.453C400.862 444.469 401.914 443.984 403.258 444ZM403.18 451.203C404.122 451.203 404.885 450.904 405.469 450.305C406.052 449.706 406.344 448.964 406.344 448.078C406.344 447.193 406.052 446.451 405.469 445.852C404.885 445.258 404.122 444.961 403.18 444.961C402.253 444.961 401.492 445.25 400.898 445.828C400.305 446.411 400.008 447.161 400.008 448.078C400.008 448.995 400.305 449.745 400.898 450.328C401.482 450.911 402.242 451.203 403.18 451.203ZM408.32 444.156H415.773V445.086H412.539V452H411.547V445.086H408.32V444.156ZM416.492 449.859C416.492 449.099 416.836 448.518 417.523 448.117C418.206 447.721 419.068 447.523 420.109 447.523C420.656 447.523 421.18 447.591 421.68 447.727C422.174 447.867 422.526 448 422.734 448.125L423.07 448.336V446.898C423.07 446.258 422.828 445.768 422.344 445.43C421.854 445.096 421.247 444.93 420.523 444.93C419.815 444.93 419.201 445.076 418.68 445.367C418.159 445.654 417.898 446.013 417.898 446.445H416.906C416.932 445.799 417.253 445.232 417.867 444.742C418.487 444.247 419.362 444 420.492 444C421.513 444 422.362 444.245 423.039 444.734C423.721 445.229 424.062 445.951 424.062 446.898V450.211C424.062 450.586 424.12 450.852 424.234 451.008C424.354 451.159 424.552 451.234 424.828 451.234C425.005 451.234 425.148 451.214 425.258 451.172L425.305 451.133V452C425.159 452.073 424.945 452.109 424.664 452.109C424.169 452.109 423.815 451.997 423.602 451.773C423.383 451.56 423.253 451.391 423.211 451.266L423.195 451.172H423.148C423.112 451.234 422.956 451.346 422.68 451.508C422.487 451.628 422.289 451.729 422.086 451.812C421.581 452.042 420.943 452.156 420.172 452.156C419.094 452.156 418.211 451.969 417.523 451.594C416.836 451.219 416.492 450.641 416.492 449.859ZM417.516 449.859C417.516 450.776 418.443 451.234 420.297 451.234C420.844 451.234 421.352 451.154 421.82 450.992C422.284 450.831 422.591 450.698 422.742 450.594C422.883 450.49 422.992 450.404 423.07 450.336V449.234C423.034 449.188 422.932 449.112 422.766 449.008C422.578 448.898 422.26 448.779 421.812 448.648C421.344 448.513 420.839 448.445 420.297 448.445C419.203 448.445 418.414 448.635 417.93 449.016C417.654 449.234 417.516 449.516 417.516 449.859Z" fill="black"/>
<line x1="465.5" y1="454" x2="465.5" y2="424" stroke="#1D1F24" stroke-opacity="0.1"/>
<path d="M507.312 449.07H508.43C508.435 449.086 508.445 449.12 508.461 449.172C508.482 449.219 508.5 449.258 508.516 449.289C508.547 449.388 508.643 449.557 508.805 449.797C508.961 450.036 509.143 450.25 509.352 450.438C509.565 450.63 509.862 450.799 510.242 450.945C510.633 451.096 511.055 451.172 511.508 451.172C512.326 451.172 513.003 450.943 513.539 450.484C514.086 450.026 514.471 449.448 514.695 448.75C514.924 448.036 515.039 447.221 515.039 446.305H515.008C514.982 446.367 514.948 446.432 514.906 446.5C514.854 446.578 514.734 446.724 514.547 446.938C514.359 447.141 514.141 447.323 513.891 447.484C513.661 447.641 513.318 447.786 512.859 447.922C512.406 448.057 511.922 448.125 511.406 448.125C510.198 448.125 509.198 447.779 508.406 447.086C507.604 446.393 507.203 445.492 507.203 444.383C507.203 443.232 507.599 442.32 508.391 441.648C509.182 440.977 510.232 440.641 511.539 440.641C512.997 440.641 514.122 441.107 514.914 442.039C515.701 442.966 516.094 444.227 516.094 445.82V446.383C516.094 448.044 515.703 449.422 514.922 450.516C514.13 451.609 512.992 452.156 511.508 452.156C510.893 452.156 510.344 452.065 509.859 451.883C509.349 451.701 508.948 451.479 508.656 451.219C508.354 450.953 508.099 450.672 507.891 450.375C507.505 449.833 507.312 449.398 507.312 449.07ZM511.539 441.633C510.576 441.633 509.792 441.88 509.188 442.375C508.589 442.865 508.289 443.534 508.289 444.383C508.289 445.232 508.594 445.901 509.203 446.391C509.807 446.885 510.586 447.133 511.539 447.133C512.43 447.133 513.185 446.878 513.805 446.367C514.414 445.862 514.719 445.201 514.719 444.383C514.719 443.565 514.422 442.901 513.828 442.391C513.229 441.885 512.466 441.633 511.539 441.633ZM530.211 445.266H530.18L527.523 449.891H526.18L523.523 445.266H523.492V452H522.5V444.156H524.039L526.836 449.117H526.867L529.672 444.156H531.203V452H530.211V445.266ZM533.523 449.859C533.523 449.099 533.867 448.518 534.555 448.117C535.237 447.721 536.099 447.523 537.141 447.523C537.688 447.523 538.211 447.591 538.711 447.727C539.206 447.867 539.557 448 539.766 448.125L540.102 448.336V446.898C540.102 446.258 539.859 445.768 539.375 445.43C538.885 445.096 538.279 444.93 537.555 444.93C536.846 444.93 536.232 445.076 535.711 445.367C535.19 445.654 534.93 446.013 534.93 446.445H533.938C533.964 445.799 534.284 445.232 534.898 444.742C535.518 444.247 536.393 444 537.523 444C538.544 444 539.393 444.245 540.07 444.734C540.753 445.229 541.094 445.951 541.094 446.898V450.211C541.094 450.586 541.151 450.852 541.266 451.008C541.385 451.159 541.583 451.234 541.859 451.234C542.036 451.234 542.18 451.214 542.289 451.172L542.336 451.133V452C542.19 452.073 541.977 452.109 541.695 452.109C541.201 452.109 540.846 451.997 540.633 451.773C540.414 451.56 540.284 451.391 540.242 451.266L540.227 451.172H540.18C540.143 451.234 539.987 451.346 539.711 451.508C539.518 451.628 539.32 451.729 539.117 451.812C538.612 452.042 537.974 452.156 537.203 452.156C536.125 452.156 535.242 451.969 534.555 451.594C533.867 451.219 533.523 450.641 533.523 449.859ZM534.547 449.859C534.547 450.776 535.474 451.234 537.328 451.234C537.875 451.234 538.383 451.154 538.852 450.992C539.315 450.831 539.622 450.698 539.773 450.594C539.914 450.49 540.023 450.404 540.102 450.336V449.234C540.065 449.188 539.964 449.112 539.797 449.008C539.609 448.898 539.292 448.779 538.844 448.648C538.375 448.513 537.87 448.445 537.328 448.445C536.234 448.445 535.445 448.635 534.961 449.016C534.685 449.234 534.547 449.516 534.547 449.859ZM548.258 444C549.435 444 550.417 444.38 551.203 445.141C551.979 445.906 552.367 446.885 552.367 448.078C552.367 449.276 551.979 450.255 551.203 451.016C550.417 451.776 549.435 452.156 548.258 452.156C546.893 452.177 545.841 451.693 545.102 450.703L545.07 450.656H545.008V455.203H544.016V444.156H545.008V445.508H545.07L545.102 445.453C545.862 444.469 546.914 443.984 548.258 444ZM548.18 451.203C549.122 451.203 549.885 450.904 550.469 450.305C551.052 449.706 551.344 448.964 551.344 448.078C551.344 447.193 551.052 446.451 550.469 445.852C549.885 445.258 549.122 444.961 548.18 444.961C547.253 444.961 546.492 445.25 545.898 445.828C545.305 446.411 545.008 447.161 545.008 448.078C545.008 448.995 545.305 449.745 545.898 450.328C546.482 450.911 547.242 451.203 548.18 451.203ZM553.32 444.156H560.773V445.086H557.539V452H556.547V445.086H553.32V444.156ZM561.492 449.859C561.492 449.099 561.836 448.518 562.523 448.117C563.206 447.721 564.068 447.523 565.109 447.523C565.656 447.523 566.18 447.591 566.68 447.727C567.174 447.867 567.526 448 567.734 448.125L568.07 448.336V446.898C568.07 446.258 567.828 445.768 567.344 445.43C566.854 445.096 566.247 444.93 565.523 444.93C564.815 444.93 564.201 445.076 563.68 445.367C563.159 445.654 562.898 446.013 562.898 446.445H561.906C561.932 445.799 562.253 445.232 562.867 444.742C563.487 444.247 564.362 444 565.492 444C566.513 444 567.362 444.245 568.039 444.734C568.721 445.229 569.062 445.951 569.062 446.898V450.211C569.062 450.586 569.12 450.852 569.234 451.008C569.354 451.159 569.552 451.234 569.828 451.234C570.005 451.234 570.148 451.214 570.258 451.172L570.305 451.133V452C570.159 452.073 569.945 452.109 569.664 452.109C569.169 452.109 568.815 451.997 568.602 451.773C568.383 451.56 568.253 451.391 568.211 451.266L568.195 451.172H568.148C568.112 451.234 567.956 451.346 567.68 451.508C567.487 451.628 567.289 451.729 567.086 451.812C566.581 452.042 565.943 452.156 565.172 452.156C564.094 452.156 563.211 451.969 562.523 451.594C561.836 451.219 561.492 450.641 561.492 449.859ZM562.516 449.859C562.516 450.776 563.443 451.234 565.297 451.234C565.844 451.234 566.352 451.154 566.82 450.992C567.284 450.831 567.591 450.698 567.742 450.594C567.883 450.49 567.992 450.404 568.07 450.336V449.234C568.034 449.188 567.932 449.112 567.766 449.008C567.578 448.898 567.26 448.779 566.812 448.648C566.344 448.513 565.839 448.445 565.297 448.445C564.203 448.445 563.414 448.635 562.93 449.016C562.654 449.234 562.516 449.516 562.516 449.859Z" fill="black"/>
<line x1="610.5" y1="454" x2="610.5" y2="424" stroke="#1D1F24" stroke-opacity="0.1"/>
<path d="M652.312 449.07H653.43C653.435 449.086 653.445 449.12 653.461 449.172C653.482 449.219 653.5 449.258 653.516 449.289C653.547 449.388 653.643 449.557 653.805 449.797C653.961 450.036 654.143 450.25 654.352 450.438C654.565 450.63 654.862 450.799 655.242 450.945C655.633 451.096 656.055 451.172 656.508 451.172C657.326 451.172 658.003 450.943 658.539 450.484C659.086 450.026 659.471 449.448 659.695 448.75C659.924 448.036 660.039 447.221 660.039 446.305H660.008C659.982 446.367 659.948 446.432 659.906 446.5C659.854 446.578 659.734 446.724 659.547 446.938C659.359 447.141 659.141 447.323 658.891 447.484C658.661 447.641 658.318 447.786 657.859 447.922C657.406 448.057 656.922 448.125 656.406 448.125C655.198 448.125 654.198 447.779 653.406 447.086C652.604 446.393 652.203 445.492 652.203 444.383C652.203 443.232 652.599 442.32 653.391 441.648C654.182 440.977 655.232 440.641 656.539 440.641C657.997 440.641 659.122 441.107 659.914 442.039C660.701 442.966 661.094 444.227 661.094 445.82V446.383C661.094 448.044 660.703 449.422 659.922 450.516C659.13 451.609 657.992 452.156 656.508 452.156C655.893 452.156 655.344 452.065 654.859 451.883C654.349 451.701 653.948 451.479 653.656 451.219C653.354 450.953 653.099 450.672 652.891 450.375C652.505 449.833 652.312 449.398 652.312 449.07ZM656.539 441.633C655.576 441.633 654.792 441.88 654.188 442.375C653.589 442.865 653.289 443.534 653.289 444.383C653.289 445.232 653.594 445.901 654.203 446.391C654.807 446.885 655.586 447.133 656.539 447.133C657.43 447.133 658.185 446.878 658.805 446.367C659.414 445.862 659.719 445.201 659.719 444.383C659.719 443.565 659.422 442.901 658.828 442.391C658.229 441.885 657.466 441.633 656.539 441.633ZM675.211 445.266H675.18L672.523 449.891H671.18L668.523 445.266H668.492V452H667.5V444.156H669.039L671.836 449.117H671.867L674.672 444.156H676.203V452H675.211V445.266ZM678.523 449.859C678.523 449.099 678.867 448.518 679.555 448.117C680.237 447.721 681.099 447.523 682.141 447.523C682.688 447.523 683.211 447.591 683.711 447.727C684.206 447.867 684.557 448 684.766 448.125L685.102 448.336V446.898C685.102 446.258 684.859 445.768 684.375 445.43C683.885 445.096 683.279 444.93 682.555 444.93C681.846 444.93 681.232 445.076 680.711 445.367C680.19 445.654 679.93 446.013 679.93 446.445H678.938C678.964 445.799 679.284 445.232 679.898 444.742C680.518 444.247 681.393 444 682.523 444C683.544 444 684.393 444.245 685.07 444.734C685.753 445.229 686.094 445.951 686.094 446.898V450.211C686.094 450.586 686.151 450.852 686.266 451.008C686.385 451.159 686.583 451.234 686.859 451.234C687.036 451.234 687.18 451.214 687.289 451.172L687.336 451.133V452C687.19 452.073 686.977 452.109 686.695 452.109C686.201 452.109 685.846 451.997 685.633 451.773C685.414 451.56 685.284 451.391 685.242 451.266L685.227 451.172H685.18C685.143 451.234 684.987 451.346 684.711 451.508C684.518 451.628 684.32 451.729 684.117 451.812C683.612 452.042 682.974 452.156 682.203 452.156C681.125 452.156 680.242 451.969 679.555 451.594C678.867 451.219 678.523 450.641 678.523 449.859ZM679.547 449.859C679.547 450.776 680.474 451.234 682.328 451.234C682.875 451.234 683.383 451.154 683.852 450.992C684.315 450.831 684.622 450.698 684.773 450.594C684.914 450.49 685.023 450.404 685.102 450.336V449.234C685.065 449.188 684.964 449.112 684.797 449.008C684.609 448.898 684.292 448.779 683.844 448.648C683.375 448.513 682.87 448.445 682.328 448.445C681.234 448.445 680.445 448.635 679.961 449.016C679.685 449.234 679.547 449.516 679.547 449.859ZM693.258 444C694.435 444 695.417 444.38 696.203 445.141C696.979 445.906 697.367 446.885 697.367 448.078C697.367 449.276 696.979 450.255 696.203 451.016C695.417 451.776 694.435 452.156 693.258 452.156C691.893 452.177 690.841 451.693 690.102 450.703L690.07 450.656H690.008V455.203H689.016V444.156H690.008V445.508H690.07L690.102 445.453C690.862 444.469 691.914 443.984 693.258 444ZM693.18 451.203C694.122 451.203 694.885 450.904 695.469 450.305C696.052 449.706 696.344 448.964 696.344 448.078C696.344 447.193 696.052 446.451 695.469 445.852C694.885 445.258 694.122 444.961 693.18 444.961C692.253 444.961 691.492 445.25 690.898 445.828C690.305 446.411 690.008 447.161 690.008 448.078C690.008 448.995 690.305 449.745 690.898 450.328C691.482 450.911 692.242 451.203 693.18 451.203ZM698.32 444.156H705.773V445.086H702.539V452H701.547V445.086H698.32V444.156ZM706.492 449.859C706.492 449.099 706.836 448.518 707.523 448.117C708.206 447.721 709.068 447.523 710.109 447.523C710.656 447.523 711.18 447.591 711.68 447.727C712.174 447.867 712.526 448 712.734 448.125L713.07 448.336V446.898C713.07 446.258 712.828 445.768 712.344 445.43C711.854 445.096 711.247 444.93 710.523 444.93C709.815 444.93 709.201 445.076 708.68 445.367C708.159 445.654 707.898 446.013 707.898 446.445H706.906C706.932 445.799 707.253 445.232 707.867 444.742C708.487 444.247 709.362 444 710.492 444C711.513 444 712.362 444.245 713.039 444.734C713.721 445.229 714.062 445.951 714.062 446.898V450.211C714.062 450.586 714.12 450.852 714.234 451.008C714.354 451.159 714.552 451.234 714.828 451.234C715.005 451.234 715.148 451.214 715.258 451.172L715.305 451.133V452C715.159 452.073 714.945 452.109 714.664 452.109C714.169 452.109 713.815 451.997 713.602 451.773C713.383 451.56 713.253 451.391 713.211 451.266L713.195 451.172H713.148C713.112 451.234 712.956 451.346 712.68 451.508C712.487 451.628 712.289 451.729 712.086 451.812C711.581 452.042 710.943 452.156 710.172 452.156C709.094 452.156 708.211 451.969 707.523 451.594C706.836 451.219 706.492 450.641 706.492 449.859ZM707.516 449.859C707.516 450.776 708.443 451.234 710.297 451.234C710.844 451.234 711.352 451.154 711.82 450.992C712.284 450.831 712.591 450.698 712.742 450.594C712.883 450.49 712.992 450.404 713.07 450.336V449.234C713.034 449.188 712.932 449.112 712.766 449.008C712.578 448.898 712.26 448.779 711.812 448.648C711.344 448.513 710.839 448.445 710.297 448.445C709.203 448.445 708.414 448.635 707.93 449.016C707.654 449.234 707.516 449.516 707.516 449.859Z" fill="black"/>
</svg>
