<svg width="28" height="32" viewBox="0 0 28 32" fill="none" xmlns="http://www.w3.org/2000/svg">
<path d="M14 32C15.0609 32 16.0783 31.5786 16.8284 30.8285C17.5786 30.0783 18 29.0609 18 28H10C10 29.0609 10.4214 30.0783 11.1716 30.8285C11.9217 31.5786 12.9391 32 14 32ZM14 3.83604L12.406 4.15804C10.5976 4.52574 8.97188 5.50736 7.8044 6.93655C6.63692 8.36574 5.99944 10.1546 6 12C6 13.256 5.732 16.394 5.082 19.484C4.762 21.018 4.33 22.616 3.756 24H24.244C23.67 22.616 23.24 21.02 22.918 19.484C22.268 16.394 22 13.256 22 12C22.0001 10.155 21.3624 8.36655 20.195 6.93777C19.0275 5.50899 17.4021 4.52767 15.594 4.16004L14 3.83604ZM26.44 24C26.886 24.894 27.402 25.602 28 26H0C0.598 25.602 1.114 24.894 1.56 24C3.36 20.4 4 13.76 4 12C4 7.16004 7.44 3.12004 12.01 2.19804C11.9821 1.91995 12.0128 1.63909 12.1001 1.37359C12.1874 1.10808 12.3293 0.86382 12.5168 0.656557C12.7043 0.449294 12.9332 0.28363 13.1887 0.17025C13.4441 0.05687 13.7205 -0.00170898 14 -0.00170898C14.2795 -0.00170898 14.5559 0.05687 14.8113 0.17025C15.0668 0.28363 15.2957 0.449294 15.4832 0.656557C15.6707 0.86382 15.8126 1.10808 15.8999 1.37359C15.9872 1.63909 16.0179 1.91995 15.99 2.19804C18.2509 2.65714 20.2835 3.88387 21.7434 5.67031C23.2032 7.45674 24.0005 9.69299 24 12C24 13.76 24.64 20.4 26.44 24Z" fill="#213A8B"/>
</svg>
