<svg width="40" height="40" viewBox="0 0 40 40" fill="none" xmlns="http://www.w3.org/2000/svg">
<circle cx="20" cy="20" r="20" fill="#E1E8F2"/>
<path d="M18.2964 23.3163C14.0821 24.1029 8.438 26.4512 6.46925 31.8257C6.08877 32.8643 6.37934 34.0058 7.04303 34.8907C7.34481 35.2931 7.72179 35.6331 8.15308 35.8918L10 37L12.0058 37.8596C13.0004 38.2859 14.0292 38.6323 15.0789 38.8947C16.685 39.2963 18.3371 39.5 19.9927 39.5C22.3136 39.5 24.6173 39.101 26.803 38.3204L27.549 38.0539C29.5052 37.3553 31.3451 36.3662 33.0068 35.1199C34.0003 34.3748 34.7086 33.3742 34.1699 32.2553C32.9487 29.7184 29.3088 25.1663 23.6726 23.5255C21.9299 23.0182 20.0807 22.9832 18.2964 23.3163Z" fill="#D9D9D9"/>
<circle cx="20" cy="12" r="7" fill="#D9D9D9"/>
</svg>
