<svg width="46" height="24" viewBox="0 0 46 24" fill="none" xmlns="http://www.w3.org/2000/svg">
<path d="M20.9531 7.1875V7.73438H13.5938V7.1875C13.5938 6.71875 13.349 6.34375 12.8594 6.0625C12.3802 5.77083 11.6875 5.625 10.7812 5.625C8.90625 5.625 7.96354 6.125 7.95312 7.125C7.95312 8.1875 9.10938 8.72396 11.4219 8.73438C15.2135 8.73438 17.9427 9.36979 19.6094 10.6406C21.2552 11.9219 22.0781 13.7396 22.0781 16.0938C22.0781 18.3646 21.1562 20.1302 19.3125 21.3906C17.4583 22.6719 14.7188 23.3125 11.0938 23.3125C7.45833 23.3125 4.71875 22.7031 2.875 21.4844C1.04167 20.2552 0.125 18.4583 0.125 16.0938V15.0938H7.48438V16.0938C7.48438 17.3542 8.69271 17.9792 11.1094 17.9688C13.5156 17.9688 14.7188 17.3646 14.7188 16.1562C14.7188 14.9583 13.599 14.3594 11.3594 14.3594C4.20312 14.3594 0.614583 11.9688 0.59375 7.1875C0.59375 5.03125 1.45833 3.33854 3.1875 2.10938C4.91667 0.890625 7.44792 0.28125 10.7812 0.28125C17.5625 0.28125 20.9531 2.58333 20.9531 7.1875Z" fill="#DA5155"/>
<path d="M30.9375 6.35938H23.6719V0.59375H45.2344V6.35938H37.9688V23H30.9375V6.35938Z" fill="#213A8B"/>
</svg>
